<svg width="387" height="239" viewBox="0 0 387 239" fill="none" xmlns="http://www.w3.org/2000/svg">
<rect x="1.58452" y="0.584523" width="390.831" height="237.831" rx="13.4155" fill="url(#paint0_linear_1000_31507)"/>
<path d="M27.4347 34.4545H30.6591L34.9773 44.9943H35.1477L39.4659 34.4545H42.6903V49H40.1619V39.0071H40.027L36.0071 48.9574H34.1179L30.098 38.9858H29.9631V49H27.4347V34.4545ZM47.044 53.0909C46.6937 53.0909 46.3693 53.0625 46.071 53.0057C45.7775 52.9536 45.5431 52.892 45.3679 52.821L45.9645 50.8182C46.3385 50.9271 46.6723 50.9792 46.9659 50.9744C47.2595 50.9697 47.5175 50.8774 47.7401 50.6974C47.9673 50.5223 48.1591 50.2287 48.3153 49.8168L48.5355 49.2273L44.5795 38.0909H47.3068L49.821 46.3295H49.9347L52.456 38.0909H55.1903L50.8224 50.321C50.6188 50.8987 50.349 51.3935 50.0128 51.8054C49.6766 52.2221 49.2647 52.5393 48.777 52.7571C48.294 52.9796 47.7164 53.0909 47.044 53.0909ZM64.5014 42.608V49H61.9304V38.0909H64.3878V39.9446H64.5156C64.7666 39.3338 65.1667 38.8485 65.7159 38.4886C66.2699 38.1288 66.9541 37.9489 67.7685 37.9489C68.5213 37.9489 69.1771 38.1098 69.7358 38.4318C70.2992 38.7538 70.7348 39.2202 71.0426 39.831C71.3551 40.4418 71.509 41.1828 71.5043 42.054V49H68.9332V42.4517C68.9332 41.7225 68.7438 41.152 68.3651 40.7401C67.991 40.3281 67.4725 40.1222 66.8097 40.1222C66.3598 40.1222 65.9598 40.2216 65.6094 40.4205C65.2637 40.6146 64.9915 40.8963 64.7926 41.2656C64.5985 41.6349 64.5014 42.0824 64.5014 42.608ZM78.9474 49.2131C77.8537 49.2131 76.9091 48.9858 76.1136 48.5312C75.3229 48.072 74.7145 47.4233 74.2884 46.5852C73.8622 45.7424 73.6491 44.7505 73.6491 43.6094C73.6491 42.4872 73.8622 41.5024 74.2884 40.6548C74.7192 39.8026 75.3205 39.1397 76.0923 38.6662C76.8641 38.188 77.7708 37.9489 78.8125 37.9489C79.4848 37.9489 80.1193 38.0578 80.7159 38.2756C81.3172 38.4886 81.8475 38.8201 82.3068 39.2699C82.7708 39.7197 83.1354 40.2926 83.4006 40.9886C83.6657 41.6799 83.7983 42.5038 83.7983 43.4602V44.2486H74.8565V42.5156H81.3338C81.3291 42.0232 81.2225 41.5852 81.0142 41.2017C80.8059 40.8134 80.5147 40.508 80.1406 40.2855C79.7713 40.063 79.3404 39.9517 78.848 39.9517C78.3224 39.9517 77.8608 40.0795 77.4631 40.3352C77.0653 40.5862 76.7552 40.9176 76.5327 41.3295C76.3149 41.7367 76.2036 42.1842 76.1989 42.6719V44.1847C76.1989 44.8191 76.3149 45.3636 76.5469 45.8182C76.7789 46.268 77.1032 46.6136 77.5199 46.8551C77.9366 47.0919 78.4242 47.2102 78.983 47.2102C79.357 47.2102 79.6955 47.1581 79.9986 47.054C80.3016 46.9451 80.5644 46.7865 80.7869 46.5781C81.0095 46.3698 81.1776 46.1117 81.2912 45.804L83.6918 46.0739C83.5402 46.7083 83.2514 47.2623 82.8253 47.7358C82.4039 48.2045 81.8641 48.5691 81.206 48.8295C80.5478 49.0852 79.795 49.2131 78.9474 49.2131ZM88.1662 49L85.0838 38.0909H87.7045L89.6222 45.7614H89.7216L91.6818 38.0909H94.2741L96.2344 45.7188H96.3409L98.2301 38.0909H100.858L97.7685 49H95.0909L93.0455 41.6278H92.8963L90.8509 49H88.1662ZM107.614 49V38.0909H110.185V49H107.614ZM108.907 36.5426C108.499 36.5426 108.149 36.4077 107.855 36.1378C107.562 35.8632 107.415 35.5341 107.415 35.1506C107.415 34.7623 107.562 34.4332 107.855 34.1634C108.149 33.8887 108.499 33.7514 108.907 33.7514C109.319 33.7514 109.669 33.8887 109.958 34.1634C110.251 34.4332 110.398 34.7623 110.398 35.1506C110.398 35.5341 110.251 35.8632 109.958 36.1378C109.669 36.4077 109.319 36.5426 108.907 36.5426ZM121.451 40.9744L119.107 41.2301C119.041 40.9934 118.925 40.7708 118.759 40.5625C118.598 40.3542 118.38 40.1861 118.106 40.0582C117.831 39.9304 117.495 39.8665 117.097 39.8665C116.562 39.8665 116.112 39.9825 115.748 40.2145C115.388 40.4465 115.21 40.7472 115.215 41.1165C115.21 41.4337 115.326 41.6918 115.563 41.8906C115.805 42.0895 116.202 42.2528 116.756 42.3807L118.617 42.7784C119.649 43.0009 120.416 43.3537 120.918 43.8366C121.425 44.3196 121.681 44.9517 121.685 45.733C121.681 46.4195 121.479 47.0256 121.082 47.5511C120.689 48.072 120.142 48.4792 119.441 48.7727C118.74 49.0663 117.935 49.2131 117.026 49.2131C115.691 49.2131 114.616 48.9337 113.802 48.375C112.987 47.8116 112.502 47.0279 112.346 46.0241L114.853 45.7827C114.967 46.2751 115.208 46.6468 115.577 46.8977C115.947 47.1487 116.427 47.2741 117.019 47.2741C117.63 47.2741 118.12 47.1487 118.489 46.8977C118.863 46.6468 119.05 46.3366 119.05 45.9673C119.05 45.6548 118.93 45.3968 118.688 45.1932C118.451 44.9896 118.082 44.8333 117.58 44.7244L115.719 44.3338C114.673 44.116 113.899 43.7491 113.397 43.233C112.895 42.7121 112.647 42.054 112.651 41.2585C112.647 40.5862 112.829 40.0038 113.198 39.5114C113.572 39.0142 114.091 38.6307 114.754 38.3608C115.421 38.0862 116.191 37.9489 117.062 37.9489C118.34 37.9489 119.346 38.2211 120.08 38.7656C120.819 39.3101 121.276 40.0464 121.451 40.9744ZM132.428 40.9744L130.084 41.2301C130.018 40.9934 129.902 40.7708 129.736 40.5625C129.575 40.3542 129.357 40.1861 129.082 40.0582C128.808 39.9304 128.472 39.8665 128.074 39.8665C127.539 39.8665 127.089 39.9825 126.724 40.2145C126.365 40.4465 126.187 40.7472 126.192 41.1165C126.187 41.4337 126.303 41.6918 126.54 41.8906C126.781 42.0895 127.179 42.2528 127.733 42.3807L129.594 42.7784C130.626 43.0009 131.393 43.3537 131.895 43.8366C132.402 44.3196 132.657 44.9517 132.662 45.733C132.657 46.4195 132.456 47.0256 132.058 47.5511C131.665 48.072 131.118 48.4792 130.418 48.7727C129.717 49.0663 128.912 49.2131 128.003 49.2131C126.668 49.2131 125.593 48.9337 124.778 48.375C123.964 47.8116 123.479 47.0279 123.322 46.0241L125.83 45.7827C125.943 46.2751 126.185 46.6468 126.554 46.8977C126.923 47.1487 127.404 47.2741 127.996 47.2741C128.607 47.2741 129.097 47.1487 129.466 46.8977C129.84 46.6468 130.027 46.3366 130.027 45.9673C130.027 45.6548 129.906 45.3968 129.665 45.1932C129.428 44.9896 129.059 44.8333 128.557 44.7244L126.696 44.3338C125.65 44.116 124.875 43.7491 124.374 43.233C123.872 42.7121 123.623 42.054 123.628 41.2585C123.623 40.5862 123.805 40.0038 124.175 39.5114C124.549 39.0142 125.067 38.6307 125.73 38.3608C126.398 38.0862 127.167 37.9489 128.038 37.9489C129.317 37.9489 130.323 38.2211 131.057 38.7656C131.795 39.3101 132.252 40.0464 132.428 40.9744ZM141.735 44.4119V38.0909H144.306V49H141.813V47.0611H141.7C141.453 47.6719 141.049 48.1714 140.485 48.5597C139.926 48.9479 139.237 49.142 138.418 49.142C137.703 49.142 137.071 48.9834 136.522 48.6662C135.978 48.3442 135.551 47.8778 135.244 47.267C134.936 46.6515 134.782 45.9081 134.782 45.0369V38.0909H137.353V44.6392C137.353 45.3305 137.542 45.8797 137.921 46.2869C138.3 46.6941 138.797 46.8977 139.413 46.8977C139.791 46.8977 140.158 46.8054 140.513 46.6207C140.869 46.4361 141.16 46.1615 141.387 45.7969C141.619 45.4276 141.735 44.9659 141.735 44.4119ZM151.779 49.2131C150.686 49.2131 149.741 48.9858 148.946 48.5312C148.155 48.072 147.547 47.4233 147.12 46.5852C146.694 45.7424 146.481 44.7505 146.481 43.6094C146.481 42.4872 146.694 41.5024 147.12 40.6548C147.551 39.8026 148.153 39.1397 148.924 38.6662C149.696 38.188 150.603 37.9489 151.645 37.9489C152.317 37.9489 152.951 38.0578 153.548 38.2756C154.149 38.4886 154.68 38.8201 155.139 39.2699C155.603 39.7197 155.967 40.2926 156.233 40.9886C156.498 41.6799 156.63 42.5038 156.63 43.4602V44.2486H147.689V42.5156H154.166C154.161 42.0232 154.055 41.5852 153.846 41.2017C153.638 40.8134 153.347 40.508 152.973 40.2855C152.603 40.063 152.172 39.9517 151.68 39.9517C151.154 39.9517 150.693 40.0795 150.295 40.3352C149.897 40.5862 149.587 40.9176 149.365 41.3295C149.147 41.7367 149.036 42.1842 149.031 42.6719V44.1847C149.031 44.8191 149.147 45.3636 149.379 45.8182C149.611 46.268 149.935 46.6136 150.352 46.8551C150.769 47.0919 151.256 47.2102 151.815 47.2102C152.189 47.2102 152.528 47.1581 152.831 47.054C153.134 46.9451 153.396 46.7865 153.619 46.5781C153.842 46.3698 154.01 46.1117 154.123 45.804L156.524 46.0739C156.372 46.7083 156.083 47.2623 155.657 47.7358C155.236 48.2045 154.696 48.5691 154.038 48.8295C153.38 49.0852 152.627 49.2131 151.779 49.2131Z" fill="white"/>
<path d="M29.5227 78L26.3409 66.3636H27.7727L30.2045 75.8409H30.3182L32.7955 66.3636H34.3864L36.8636 75.8409H36.9773L39.4091 66.3636H40.8409L37.6591 78H36.2045L33.6364 68.7273H33.5455L30.9773 78H29.5227ZM41.8679 78V69.2727H43.1634V70.5909H43.2543C43.4134 70.1591 43.7012 69.8087 44.1179 69.5398C44.5346 69.2708 45.0043 69.1364 45.527 69.1364C45.6255 69.1364 45.7486 69.1383 45.8963 69.142C46.044 69.1458 46.1558 69.1515 46.2315 69.1591V70.5227C46.1861 70.5114 46.0819 70.4943 45.919 70.4716C45.7599 70.4451 45.5914 70.4318 45.4134 70.4318C44.9891 70.4318 44.6103 70.5208 44.277 70.6989C43.9474 70.8731 43.6861 71.1155 43.4929 71.4261C43.3035 71.733 43.2088 72.0833 43.2088 72.4773V78H41.8679ZM47.821 78V69.2727H49.1619V78H47.821ZM48.5028 67.8182C48.2415 67.8182 48.0161 67.7292 47.8267 67.5511C47.6411 67.3731 47.5483 67.1591 47.5483 66.9091C47.5483 66.6591 47.6411 66.4451 47.8267 66.267C48.0161 66.089 48.2415 66 48.5028 66C48.7642 66 48.9877 66.089 49.1733 66.267C49.3627 66.4451 49.4574 66.6591 49.4574 66.9091C49.4574 67.1591 49.3627 67.3731 49.1733 67.5511C48.9877 67.7292 48.7642 67.8182 48.5028 67.8182ZM55.4134 69.2727V70.4091H50.8906V69.2727H55.4134ZM52.2088 67.1818H53.5497V75.5C53.5497 75.8788 53.6046 76.1629 53.7145 76.3523C53.8281 76.5379 53.9721 76.6629 54.1463 76.7273C54.3243 76.7879 54.5118 76.8182 54.7088 76.8182C54.8565 76.8182 54.9777 76.8106 55.0724 76.7955C55.1671 76.7765 55.2429 76.7614 55.2997 76.75L55.5724 77.9545C55.4815 77.9886 55.3546 78.0227 55.1918 78.0568C55.0289 78.0947 54.8224 78.1136 54.5724 78.1136C54.1937 78.1136 53.8224 78.0322 53.4588 77.8693C53.099 77.7064 52.7997 77.4583 52.5611 77.125C52.3262 76.7917 52.2088 76.3712 52.2088 75.8636V67.1818ZM60.9957 78.1818C60.1548 78.1818 59.4295 77.9962 58.8196 77.625C58.2135 77.25 57.7457 76.7273 57.4162 76.0568C57.0904 75.3826 56.9276 74.5985 56.9276 73.7045C56.9276 72.8106 57.0904 72.0227 57.4162 71.3409C57.7457 70.6553 58.2041 70.1212 58.7912 69.7386C59.3821 69.3523 60.0715 69.1591 60.8594 69.1591C61.3139 69.1591 61.7628 69.2348 62.206 69.3864C62.6491 69.5379 63.0526 69.7841 63.4162 70.125C63.7798 70.4621 64.0696 70.9091 64.2855 71.4659C64.5014 72.0227 64.6094 72.7083 64.6094 73.5227V74.0909H57.8821V72.9318H63.2457C63.2457 72.4394 63.1473 72 62.9503 71.6136C62.7571 71.2273 62.4806 70.9223 62.1207 70.6989C61.7647 70.4754 61.3442 70.3636 60.8594 70.3636C60.3253 70.3636 59.8632 70.4962 59.473 70.7614C59.0866 71.0227 58.7893 71.3636 58.581 71.7841C58.3726 72.2045 58.2685 72.6553 58.2685 73.1364V73.9091C58.2685 74.5682 58.3821 75.1269 58.6094 75.5852C58.8404 76.0398 59.1605 76.3864 59.5696 76.625C59.9787 76.8598 60.4541 76.9773 60.9957 76.9773C61.348 76.9773 61.6662 76.928 61.9503 76.8295C62.2382 76.7273 62.4863 76.5758 62.6946 76.375C62.9029 76.1705 63.0639 75.9167 63.1776 75.6136L64.473 75.9773C64.3366 76.4167 64.1075 76.803 63.7855 77.1364C63.4635 77.4659 63.0658 77.7235 62.5923 77.9091C62.1188 78.0909 61.5866 78.1818 60.9957 78.1818ZM72.6719 78V79.25H65.3991V78H72.6719ZM74.4304 78V69.2727H75.7713V78H74.4304ZM75.1122 67.8182C74.8509 67.8182 74.6255 67.7292 74.4361 67.5511C74.2505 67.3731 74.1577 67.1591 74.1577 66.9091C74.1577 66.6591 74.2505 66.4451 74.4361 66.267C74.6255 66.089 74.8509 66 75.1122 66C75.3736 66 75.5971 66.089 75.7827 66.267C75.9721 66.4451 76.0668 66.6591 76.0668 66.9091C76.0668 67.1591 75.9721 67.3731 75.7827 67.5511C75.5971 67.7292 75.3736 67.8182 75.1122 67.8182ZM84.4091 71.2273L83.2045 71.5682C83.1288 71.3674 83.017 71.1723 82.8693 70.983C82.7254 70.7898 82.5284 70.6307 82.2784 70.5057C82.0284 70.3807 81.7083 70.3182 81.3182 70.3182C80.7841 70.3182 80.339 70.4413 79.983 70.6875C79.6307 70.9299 79.4545 71.2386 79.4545 71.6136C79.4545 71.947 79.5758 72.2102 79.8182 72.4034C80.0606 72.5966 80.4394 72.7576 80.9545 72.8864L82.25 73.2045C83.0303 73.3939 83.6117 73.6837 83.9943 74.0739C84.3769 74.4602 84.5682 74.9583 84.5682 75.5682C84.5682 76.0682 84.4242 76.5152 84.1364 76.9091C83.8523 77.303 83.4545 77.6136 82.9432 77.8409C82.4318 78.0682 81.8371 78.1818 81.1591 78.1818C80.2689 78.1818 79.5322 77.9886 78.9489 77.6023C78.3655 77.2159 77.9962 76.6515 77.8409 75.9091L79.1136 75.5909C79.2348 76.0606 79.464 76.4129 79.8011 76.6477C80.142 76.8826 80.5871 77 81.1364 77C81.7614 77 82.2576 76.8674 82.625 76.6023C82.9962 76.3333 83.1818 76.0114 83.1818 75.6364C83.1818 75.3333 83.0758 75.0795 82.8636 74.875C82.6515 74.6667 82.3258 74.5114 81.8864 74.4091L80.4318 74.0682C79.6326 73.8788 79.0455 73.5852 78.6705 73.1875C78.2992 72.786 78.1136 72.2841 78.1136 71.6818C78.1136 71.1894 78.2519 70.7538 78.5284 70.375C78.8087 69.9962 79.1894 69.6989 79.6705 69.483C80.1553 69.267 80.7045 69.1591 81.3182 69.1591C82.1818 69.1591 82.8598 69.3485 83.3523 69.7273C83.8485 70.1061 84.2008 70.6061 84.4091 71.2273ZM92.7685 71.2273L91.5639 71.5682C91.4882 71.3674 91.3764 71.1723 91.2287 70.983C91.0848 70.7898 90.8878 70.6307 90.6378 70.5057C90.3878 70.3807 90.0677 70.3182 89.6776 70.3182C89.1435 70.3182 88.6984 70.4413 88.3423 70.6875C87.9901 70.9299 87.8139 71.2386 87.8139 71.6136C87.8139 71.947 87.9351 72.2102 88.1776 72.4034C88.42 72.5966 88.7988 72.7576 89.3139 72.8864L90.6094 73.2045C91.3897 73.3939 91.9711 73.6837 92.3537 74.0739C92.7363 74.4602 92.9276 74.9583 92.9276 75.5682C92.9276 76.0682 92.7836 76.5152 92.4957 76.9091C92.2116 77.303 91.8139 77.6136 91.3026 77.8409C90.7912 78.0682 90.1965 78.1818 89.5185 78.1818C88.6283 78.1818 87.8916 77.9886 87.3082 77.6023C86.7249 77.2159 86.3556 76.6515 86.2003 75.9091L87.473 75.5909C87.5942 76.0606 87.8234 76.4129 88.1605 76.6477C88.5014 76.8826 88.9465 77 89.4957 77C90.1207 77 90.617 76.8674 90.9844 76.6023C91.3556 76.3333 91.5412 76.0114 91.5412 75.6364C91.5412 75.3333 91.4351 75.0795 91.223 74.875C91.0109 74.6667 90.6851 74.5114 90.2457 74.4091L88.7912 74.0682C87.992 73.8788 87.4048 73.5852 87.0298 73.1875C86.6586 72.786 86.473 72.2841 86.473 71.6818C86.473 71.1894 86.6113 70.7538 86.8878 70.375C87.1681 69.9962 87.5488 69.6989 88.0298 69.483C88.5147 69.267 89.0639 69.1591 89.6776 69.1591C90.5412 69.1591 91.2192 69.3485 91.7116 69.7273C92.2079 70.1061 92.5601 70.6061 92.7685 71.2273ZM100.446 74.4318V69.2727H101.787V78H100.446V76.5227H100.355C100.151 76.9659 99.8324 77.3428 99.4006 77.6534C98.9688 77.9602 98.4233 78.1136 97.7642 78.1136C97.2188 78.1136 96.7339 77.9943 96.3097 77.7557C95.8854 77.5133 95.5521 77.1496 95.3097 76.6648C95.0672 76.1761 94.946 75.5606 94.946 74.8182V69.2727H96.2869V74.7273C96.2869 75.3636 96.465 75.8712 96.821 76.25C97.1809 76.6288 97.6392 76.8182 98.196 76.8182C98.5294 76.8182 98.8684 76.733 99.2131 76.5625C99.5616 76.392 99.8532 76.1307 100.088 75.7784C100.327 75.4261 100.446 74.9773 100.446 74.4318ZM107.902 78.1818C107.061 78.1818 106.336 77.9962 105.726 77.625C105.12 77.25 104.652 76.7273 104.322 76.0568C103.997 75.3826 103.834 74.5985 103.834 73.7045C103.834 72.8106 103.997 72.0227 104.322 71.3409C104.652 70.6553 105.11 70.1212 105.697 69.7386C106.288 69.3523 106.978 69.1591 107.766 69.1591C108.22 69.1591 108.669 69.2348 109.112 69.3864C109.555 69.5379 109.959 69.7841 110.322 70.125C110.686 70.4621 110.976 70.9091 111.192 71.4659C111.408 72.0227 111.516 72.7083 111.516 73.5227V74.0909H104.788V72.9318H110.152C110.152 72.4394 110.054 72 109.857 71.6136C109.663 71.2273 109.387 70.9223 109.027 70.6989C108.671 70.4754 108.25 70.3636 107.766 70.3636C107.232 70.3636 106.769 70.4962 106.379 70.7614C105.993 71.0227 105.696 71.3636 105.487 71.7841C105.279 72.2045 105.175 72.6553 105.175 73.1364V73.9091C105.175 74.5682 105.288 75.1269 105.516 75.5852C105.747 76.0398 106.067 76.3864 106.476 76.625C106.885 76.8598 107.36 76.9773 107.902 76.9773C108.254 76.9773 108.572 76.928 108.857 76.8295C109.144 76.7273 109.393 76.5758 109.601 76.375C109.809 76.1705 109.97 75.9167 110.084 75.6136L111.379 75.9773C111.243 76.4167 111.014 76.803 110.692 77.1364C110.37 77.4659 109.972 77.7235 109.499 77.9091C109.025 78.0909 108.493 78.1818 107.902 78.1818ZM119.578 78V79.25H112.305V78H119.578ZM123.358 78.2045C122.805 78.2045 122.303 78.1004 121.852 77.892C121.402 77.6799 121.044 77.375 120.778 76.9773C120.513 76.5758 120.381 76.0909 120.381 75.5227C120.381 75.0227 120.479 74.6174 120.676 74.3068C120.873 73.9924 121.136 73.7462 121.466 73.5682C121.795 73.3902 122.159 73.2576 122.557 73.1705C122.958 73.0795 123.362 73.0076 123.767 72.9545C124.297 72.8864 124.727 72.8352 125.057 72.8011C125.39 72.7633 125.633 72.7008 125.784 72.6136C125.939 72.5265 126.017 72.375 126.017 72.1591V72.1136C126.017 71.553 125.864 71.1174 125.557 70.8068C125.254 70.4962 124.794 70.3409 124.176 70.3409C123.536 70.3409 123.034 70.4811 122.67 70.7614C122.307 71.0417 122.051 71.3409 121.903 71.6591L120.631 71.2045C120.858 70.6742 121.161 70.2614 121.54 69.9659C121.922 69.6667 122.339 69.4583 122.79 69.3409C123.244 69.2197 123.691 69.1591 124.131 69.1591C124.411 69.1591 124.733 69.1932 125.097 69.2614C125.464 69.3258 125.818 69.4602 126.159 69.6648C126.504 69.8693 126.79 70.178 127.017 70.5909C127.244 71.0038 127.358 71.5568 127.358 72.25V78H126.017V76.8182H125.949C125.858 77.0076 125.706 77.2102 125.494 77.4261C125.282 77.642 125 77.8258 124.648 77.9773C124.295 78.1288 123.866 78.2045 123.358 78.2045ZM123.562 77C124.093 77 124.54 76.8958 124.903 76.6875C125.271 76.4792 125.547 76.2102 125.733 75.8807C125.922 75.5511 126.017 75.2045 126.017 74.8409V73.6136C125.96 73.6818 125.835 73.7443 125.642 73.8011C125.453 73.8542 125.233 73.9015 124.983 73.9432C124.737 73.9811 124.496 74.0152 124.261 74.0455C124.03 74.072 123.843 74.0947 123.699 74.1136C123.35 74.1591 123.025 74.233 122.722 74.3352C122.422 74.4337 122.18 74.5833 121.994 74.7841C121.813 74.9811 121.722 75.25 121.722 75.5909C121.722 76.0568 121.894 76.4091 122.239 76.6477C122.587 76.8826 123.028 77 123.562 77ZM131.146 72.75V78H129.805V69.2727H131.101V70.6364H131.214C131.419 70.1932 131.73 69.8371 132.146 69.5682C132.563 69.2955 133.101 69.1591 133.76 69.1591C134.351 69.1591 134.868 69.2803 135.311 69.5227C135.754 69.7614 136.099 70.125 136.345 70.6136C136.591 71.0985 136.714 71.7121 136.714 72.4545V78H135.374V72.5455C135.374 71.8598 135.196 71.3258 134.839 70.9432C134.483 70.5568 133.995 70.3636 133.374 70.3636C132.946 70.3636 132.563 70.4564 132.226 70.642C131.893 70.8277 131.629 71.0985 131.436 71.4545C131.243 71.8106 131.146 72.2424 131.146 72.75ZM142.46 78.1818C141.733 78.1818 141.091 77.9981 140.534 77.6307C139.977 77.2595 139.542 76.7367 139.227 76.0625C138.913 75.3845 138.756 74.5833 138.756 73.6591C138.756 72.7424 138.913 71.947 139.227 71.2727C139.542 70.5985 139.979 70.0777 140.54 69.7102C141.1 69.3428 141.748 69.1591 142.483 69.1591C143.051 69.1591 143.5 69.2538 143.83 69.4432C144.163 69.6288 144.417 69.8409 144.591 70.0795C144.769 70.3144 144.907 70.5076 145.006 70.6591H145.119V66.3636H146.46V78H145.165V76.6591H145.006C144.907 76.8182 144.767 77.0189 144.585 77.2614C144.403 77.5 144.144 77.714 143.807 77.9034C143.47 78.089 143.021 78.1818 142.46 78.1818ZM142.642 76.9773C143.18 76.9773 143.634 76.8371 144.006 76.5568C144.377 76.2727 144.659 75.8807 144.852 75.3807C145.045 74.8769 145.142 74.2955 145.142 73.6364C145.142 72.9848 145.047 72.4148 144.858 71.9261C144.669 71.4337 144.388 71.0511 144.017 70.7784C143.646 70.5019 143.188 70.3636 142.642 70.3636C142.074 70.3636 141.6 70.5095 141.222 70.8011C140.847 71.089 140.564 71.4811 140.375 71.9773C140.189 72.4697 140.097 73.0227 140.097 73.6364C140.097 74.2576 140.191 74.822 140.381 75.3295C140.574 75.8333 140.858 76.2348 141.233 76.5341C141.612 76.8295 142.081 76.9773 142.642 76.9773ZM155.672 78V79.25H148.399V78H155.672ZM160.429 78.1818C159.611 78.1818 158.906 77.9886 158.315 77.6023C157.724 77.2159 157.27 76.6837 156.952 76.0057C156.634 75.3277 156.474 74.553 156.474 73.6818C156.474 72.7955 156.637 72.0133 156.963 71.3352C157.293 70.6534 157.751 70.1212 158.338 69.7386C158.929 69.3523 159.618 69.1591 160.406 69.1591C161.02 69.1591 161.573 69.2727 162.065 69.5C162.558 69.7273 162.961 70.0455 163.276 70.4545C163.59 70.8636 163.785 71.3409 163.861 71.8864H162.52C162.418 71.4886 162.19 71.1364 161.838 70.8295C161.49 70.5189 161.02 70.3636 160.429 70.3636C159.906 70.3636 159.448 70.5 159.054 70.7727C158.664 71.0417 158.359 71.4223 158.139 71.9148C157.923 72.4034 157.815 72.9773 157.815 73.6364C157.815 74.3106 157.921 74.8977 158.134 75.3977C158.349 75.8977 158.652 76.286 159.043 76.5625C159.437 76.839 159.899 76.9773 160.429 76.9773C160.777 76.9773 161.094 76.9167 161.378 76.7955C161.662 76.6742 161.902 76.5 162.099 76.2727C162.296 76.0455 162.437 75.7727 162.52 75.4545H163.861C163.785 75.9697 163.598 76.4337 163.298 76.8466C163.003 77.2557 162.611 77.5814 162.122 77.8239C161.637 78.0625 161.073 78.1818 160.429 78.1818ZM169.366 78.1818C168.579 78.1818 167.887 77.9943 167.293 77.6193C166.702 77.2443 166.24 76.7197 165.906 76.0455C165.577 75.3712 165.412 74.5833 165.412 73.6818C165.412 72.7727 165.577 71.9792 165.906 71.3011C166.24 70.6231 166.702 70.0966 167.293 69.7216C167.887 69.3466 168.579 69.1591 169.366 69.1591C170.154 69.1591 170.844 69.3466 171.435 69.7216C172.029 70.0966 172.491 70.6231 172.821 71.3011C173.154 71.9792 173.321 72.7727 173.321 73.6818C173.321 74.5833 173.154 75.3712 172.821 76.0455C172.491 76.7197 172.029 77.2443 171.435 77.6193C170.844 77.9943 170.154 78.1818 169.366 78.1818ZM169.366 76.9773C169.965 76.9773 170.457 76.8239 170.844 76.517C171.23 76.2102 171.516 75.8068 171.702 75.3068C171.887 74.8068 171.98 74.2652 171.98 73.6818C171.98 73.0985 171.887 72.5549 171.702 72.0511C171.516 71.5473 171.23 71.1402 170.844 70.8295C170.457 70.5189 169.965 70.3636 169.366 70.3636C168.768 70.3636 168.276 70.5189 167.889 70.8295C167.503 71.1402 167.217 71.5473 167.031 72.0511C166.846 72.5549 166.753 73.0985 166.753 73.6818C166.753 74.2652 166.846 74.8068 167.031 75.3068C167.217 75.8068 167.503 76.2102 167.889 76.517C168.276 76.8239 168.768 76.9773 169.366 76.9773ZM175.368 78V69.2727H176.663V70.6364H176.777C176.959 70.1705 177.252 69.8087 177.658 69.5511C178.063 69.2898 178.55 69.1591 179.118 69.1591C179.694 69.1591 180.173 69.2898 180.555 69.5511C180.942 69.8087 181.243 70.1705 181.459 70.6364H181.55C181.773 70.1856 182.108 69.8277 182.555 69.5625C183.002 69.2936 183.538 69.1591 184.163 69.1591C184.944 69.1591 185.582 69.4034 186.078 69.892C186.574 70.3769 186.822 71.1326 186.822 72.1591V78H185.482V72.1591C185.482 71.5152 185.305 71.0549 184.953 70.7784C184.601 70.5019 184.186 70.3636 183.709 70.3636C183.095 70.3636 182.62 70.5492 182.283 70.9205C181.946 71.2879 181.777 71.7538 181.777 72.3182V78H180.413V72.0227C180.413 71.5265 180.252 71.1269 179.93 70.8239C179.608 70.517 179.194 70.3636 178.686 70.3636C178.338 70.3636 178.012 70.4564 177.709 70.642C177.41 70.8277 177.167 71.0852 176.982 71.4148C176.8 71.7405 176.709 72.1174 176.709 72.5455V78H175.368ZM189.274 78V69.2727H190.57V70.6364H190.683C190.865 70.1705 191.159 69.8087 191.564 69.5511C191.969 69.2898 192.456 69.1591 193.024 69.1591C193.6 69.1591 194.079 69.2898 194.462 69.5511C194.848 69.8087 195.149 70.1705 195.365 70.6364H195.456C195.679 70.1856 196.015 69.8277 196.462 69.5625C196.909 69.2936 197.445 69.1591 198.07 69.1591C198.85 69.1591 199.488 69.4034 199.984 69.892C200.481 70.3769 200.729 71.1326 200.729 72.1591V78H199.388V72.1591C199.388 71.5152 199.212 71.0549 198.859 70.7784C198.507 70.5019 198.092 70.3636 197.615 70.3636C197.001 70.3636 196.526 70.5492 196.189 70.9205C195.852 71.2879 195.683 71.7538 195.683 72.3182V78H194.32V72.0227C194.32 71.5265 194.159 71.1269 193.837 70.8239C193.515 70.517 193.1 70.3636 192.592 70.3636C192.244 70.3636 191.918 70.4564 191.615 70.642C191.316 70.8277 191.073 71.0852 190.888 71.4148C190.706 71.7405 190.615 72.1174 190.615 72.5455V78H189.274ZM206.839 78.1818C205.999 78.1818 205.273 77.9962 204.663 77.625C204.057 77.25 203.589 76.7273 203.26 76.0568C202.934 75.3826 202.771 74.5985 202.771 73.7045C202.771 72.8106 202.934 72.0227 203.26 71.3409C203.589 70.6553 204.048 70.1212 204.635 69.7386C205.226 69.3523 205.915 69.1591 206.703 69.1591C207.158 69.1591 207.607 69.2348 208.05 69.3864C208.493 69.5379 208.896 69.7841 209.26 70.125C209.624 70.4621 209.913 70.9091 210.129 71.4659C210.345 72.0227 210.453 72.7083 210.453 73.5227V74.0909H203.726V72.9318H209.089C209.089 72.4394 208.991 72 208.794 71.6136C208.601 71.2273 208.324 70.9223 207.964 70.6989C207.608 70.4754 207.188 70.3636 206.703 70.3636C206.169 70.3636 205.707 70.4962 205.317 70.7614C204.93 71.0227 204.633 71.3636 204.425 71.7841C204.216 72.2045 204.112 72.6553 204.112 73.1364V73.9091C204.112 74.5682 204.226 75.1269 204.453 75.5852C204.684 76.0398 205.004 76.3864 205.413 76.625C205.822 76.8598 206.298 76.9773 206.839 76.9773C207.192 76.9773 207.51 76.928 207.794 76.8295C208.082 76.7273 208.33 76.5758 208.538 76.375C208.747 76.1705 208.908 75.9167 209.021 75.6136L210.317 75.9773C210.18 76.4167 209.951 76.803 209.629 77.1364C209.307 77.4659 208.91 77.7235 208.436 77.9091C207.963 78.0909 207.43 78.1818 206.839 78.1818ZM213.834 72.75V78H212.493V69.2727H213.788V70.6364H213.902C214.107 70.1932 214.417 69.8371 214.834 69.5682C215.25 69.2955 215.788 69.1591 216.447 69.1591C217.038 69.1591 217.555 69.2803 217.999 69.5227C218.442 69.7614 218.786 70.125 219.033 70.6136C219.279 71.0985 219.402 71.7121 219.402 72.4545V78H218.061V72.5455C218.061 71.8598 217.883 71.3258 217.527 70.9432C217.171 70.5568 216.682 70.3636 216.061 70.3636C215.633 70.3636 215.25 70.4564 214.913 70.642C214.58 70.8277 214.317 71.0985 214.124 71.4545C213.93 71.8106 213.834 72.2424 213.834 72.75ZM225.648 69.2727V70.4091H221.125V69.2727H225.648ZM222.443 67.1818H223.784V75.5C223.784 75.8788 223.839 76.1629 223.949 76.3523C224.063 76.5379 224.206 76.6629 224.381 76.7273C224.559 76.7879 224.746 76.8182 224.943 76.8182C225.091 76.8182 225.212 76.8106 225.307 76.7955C225.402 76.7765 225.477 76.7614 225.534 76.75L225.807 77.9545C225.716 77.9886 225.589 78.0227 225.426 78.0568C225.263 78.0947 225.057 78.1136 224.807 78.1136C224.428 78.1136 224.057 78.0322 223.693 77.8693C223.333 77.7064 223.034 77.4583 222.795 77.125C222.561 76.7917 222.443 76.3712 222.443 75.8636V67.1818ZM233.69 71.2273L232.486 71.5682C232.41 71.3674 232.298 71.1723 232.151 70.983C232.007 70.7898 231.81 70.6307 231.56 70.5057C231.31 70.3807 230.99 70.3182 230.599 70.3182C230.065 70.3182 229.62 70.4413 229.264 70.6875C228.912 70.9299 228.736 71.2386 228.736 71.6136C228.736 71.947 228.857 72.2102 229.099 72.4034C229.342 72.5966 229.721 72.7576 230.236 72.8864L231.531 73.2045C232.312 73.3939 232.893 73.6837 233.276 74.0739C233.658 74.4602 233.849 74.9583 233.849 75.5682C233.849 76.0682 233.705 76.5152 233.418 76.9091C233.134 77.303 232.736 77.6136 232.224 77.8409C231.713 78.0682 231.118 78.1818 230.44 78.1818C229.55 78.1818 228.813 77.9886 228.23 77.6023C227.647 77.2159 227.277 76.6515 227.122 75.9091L228.395 75.5909C228.516 76.0606 228.745 76.4129 229.082 76.6477C229.423 76.8826 229.868 77 230.418 77C231.043 77 231.539 76.8674 231.906 76.6023C232.277 76.3333 232.463 76.0114 232.463 75.6364C232.463 75.3333 232.357 75.0795 232.145 74.875C231.933 74.6667 231.607 74.5114 231.168 74.4091L229.713 74.0682C228.914 73.8788 228.327 73.5852 227.952 73.1875C227.58 72.786 227.395 72.2841 227.395 71.6818C227.395 71.1894 227.533 70.7538 227.81 70.375C228.09 69.9962 228.471 69.6989 228.952 69.483C229.437 69.267 229.986 69.1591 230.599 69.1591C231.463 69.1591 232.141 69.3485 232.634 69.7273C233.13 70.1061 233.482 70.6061 233.69 71.2273ZM241.891 78V79.25H234.618V78H241.891ZM245.08 78L242.42 69.2727H243.83L245.716 75.9545H245.807L247.67 69.2727H249.102L250.943 75.9318H251.034L252.92 69.2727H254.33L251.67 78H250.352L248.443 71.2955H248.307L246.398 78H245.08ZM256.102 78V69.2727H257.443V78H256.102ZM256.784 67.8182C256.523 67.8182 256.297 67.7292 256.108 67.5511C255.922 67.3731 255.83 67.1591 255.83 66.9091C255.83 66.6591 255.922 66.4451 256.108 66.267C256.297 66.089 256.523 66 256.784 66C257.045 66 257.269 66.089 257.455 66.267C257.644 66.4451 257.739 66.6591 257.739 66.9091C257.739 67.1591 257.644 67.3731 257.455 67.5511C257.269 67.7292 257.045 67.8182 256.784 67.8182ZM263.695 69.2727V70.4091H259.172V69.2727H263.695ZM260.49 67.1818H261.831V75.5C261.831 75.8788 261.886 76.1629 261.996 76.3523C262.109 76.5379 262.253 76.6629 262.428 76.7273C262.606 76.7879 262.793 76.8182 262.99 76.8182C263.138 76.8182 263.259 76.8106 263.354 76.7955C263.448 76.7765 263.524 76.7614 263.581 76.75L263.854 77.9545C263.763 77.9886 263.636 78.0227 263.473 78.0568C263.31 78.0947 263.104 78.1136 262.854 78.1136C262.475 78.1136 262.104 78.0322 261.74 77.8693C261.38 77.7064 261.081 77.4583 260.842 77.125C260.607 76.7917 260.49 76.3712 260.49 75.8636V67.1818ZM267.24 72.75V78H265.899V66.3636H267.24V70.6364H267.354C267.558 70.1856 267.865 69.8277 268.274 69.5625C268.687 69.2936 269.236 69.1591 269.922 69.1591C270.517 69.1591 271.037 69.2784 271.484 69.517C271.931 69.7519 272.278 70.1136 272.524 70.6023C272.774 71.0871 272.899 71.7045 272.899 72.4545V78H271.558V72.5455C271.558 71.8523 271.378 71.3163 271.018 70.9375C270.662 70.5549 270.168 70.3636 269.536 70.3636C269.096 70.3636 268.702 70.4564 268.354 70.642C268.009 70.8277 267.736 71.0985 267.536 71.4545C267.339 71.8106 267.24 72.2424 267.24 72.75ZM283.739 69.2727V70.4091H279.034V69.2727H283.739ZM280.443 78V68.0682C280.443 67.5682 280.561 67.1515 280.795 66.8182C281.03 66.4848 281.335 66.2348 281.71 66.0682C282.085 65.9015 282.481 65.8182 282.898 65.8182C283.227 65.8182 283.496 65.8447 283.705 65.8977C283.913 65.9508 284.068 66 284.17 66.0455L283.784 67.2045C283.716 67.1818 283.621 67.1534 283.5 67.1193C283.383 67.0852 283.227 67.0682 283.034 67.0682C282.591 67.0682 282.271 67.1799 282.074 67.4034C281.881 67.6269 281.784 67.9545 281.784 68.3864V78H280.443ZM291.118 74.4318V69.2727H292.459V78H291.118V76.5227H291.027C290.822 76.9659 290.504 77.3428 290.072 77.6534C289.641 77.9602 289.095 78.1136 288.436 78.1136C287.891 78.1136 287.406 77.9943 286.982 77.7557C286.557 77.5133 286.224 77.1496 285.982 76.6648C285.739 76.1761 285.618 75.5606 285.618 74.8182V69.2727H286.959V74.7273C286.959 75.3636 287.137 75.8712 287.493 76.25C287.853 76.6288 288.311 76.8182 288.868 76.8182C289.201 76.8182 289.54 76.733 289.885 76.5625C290.233 76.392 290.525 76.1307 290.76 75.7784C290.999 75.4261 291.118 74.9773 291.118 74.4318ZM296.256 66.3636V78H294.915V66.3636H296.256ZM300.053 66.3636V78H298.712V66.3636H300.053ZM309.236 72.9091L309.327 70.4091L307.213 71.75L306.668 70.7955L308.895 69.6364L306.668 68.4773L307.213 67.5227L309.327 68.8636L309.236 66.3636H310.327L310.236 68.8636L312.349 67.5227L312.895 68.4773L310.668 69.6364L312.895 70.7955L312.349 71.75L310.236 70.4091L310.327 72.9091H309.236ZM317.236 72.9091L317.327 70.4091L315.213 71.75L314.668 70.7955L316.895 69.6364L314.668 68.4773L315.213 67.5227L317.327 68.8636L317.236 66.3636H318.327L318.236 68.8636L320.349 67.5227L320.895 68.4773L318.668 69.6364L320.895 70.7955L320.349 71.75L318.236 70.4091L318.327 72.9091H317.236ZM323.19 66.3636H324.872L328.827 76.0227H328.963L332.918 66.3636H334.599V78H333.281V69.1591H333.168L329.531 78H328.259L324.622 69.1591H324.509V78H323.19V66.3636ZM339.811 78.2045C339.258 78.2045 338.756 78.1004 338.305 77.892C337.855 77.6799 337.497 77.375 337.232 76.9773C336.966 76.5758 336.834 76.0909 336.834 75.5227C336.834 75.0227 336.932 74.6174 337.129 74.3068C337.326 73.9924 337.589 73.7462 337.919 73.5682C338.249 73.3902 338.612 73.2576 339.01 73.1705C339.411 73.0795 339.815 73.0076 340.22 72.9545C340.75 72.8864 341.18 72.8352 341.51 72.8011C341.843 72.7633 342.086 72.7008 342.237 72.6136C342.393 72.5265 342.47 72.375 342.47 72.1591V72.1136C342.47 71.553 342.317 71.1174 342.01 70.8068C341.707 70.4962 341.247 70.3409 340.629 70.3409C339.989 70.3409 339.487 70.4811 339.124 70.7614C338.76 71.0417 338.504 71.3409 338.357 71.6591L337.084 71.2045C337.311 70.6742 337.614 70.2614 337.993 69.9659C338.375 69.6667 338.792 69.4583 339.243 69.3409C339.697 69.2197 340.144 69.1591 340.584 69.1591C340.864 69.1591 341.186 69.1932 341.55 69.2614C341.917 69.3258 342.271 69.4602 342.612 69.6648C342.957 69.8693 343.243 70.178 343.47 70.5909C343.697 71.0038 343.811 71.5568 343.811 72.25V78H342.47V76.8182H342.402C342.311 77.0076 342.16 77.2102 341.947 77.4261C341.735 77.642 341.453 77.8258 341.101 77.9773C340.749 78.1288 340.319 78.2045 339.811 78.2045ZM340.016 77C340.546 77 340.993 76.8958 341.357 76.6875C341.724 76.4792 342 76.2102 342.186 75.8807C342.375 75.5511 342.47 75.2045 342.47 74.8409V73.6136C342.413 73.6818 342.288 73.7443 342.095 73.8011C341.906 73.8542 341.686 73.9015 341.436 73.9432C341.19 73.9811 340.949 74.0152 340.714 74.0455C340.483 74.072 340.296 74.0947 340.152 74.1136C339.804 74.1591 339.478 74.233 339.175 74.3352C338.875 74.4337 338.633 74.5833 338.447 74.7841C338.266 74.9811 338.175 75.25 338.175 75.5909C338.175 76.0568 338.347 76.4091 338.692 76.6477C339.04 76.8826 339.482 77 340.016 77ZM346.259 78V69.2727H347.554V70.5909H347.645C347.804 70.1591 348.092 69.8087 348.509 69.5398C348.925 69.2708 349.395 69.1364 349.918 69.1364C350.016 69.1364 350.139 69.1383 350.287 69.142C350.435 69.1458 350.546 69.1515 350.622 69.1591V70.5227C350.577 70.5114 350.473 70.4943 350.31 70.4716C350.151 70.4451 349.982 70.4318 349.804 70.4318C349.38 70.4318 349.001 70.5208 348.668 70.6989C348.338 70.8731 348.077 71.1155 347.884 71.4261C347.694 71.733 347.599 72.0833 347.599 72.4773V78H346.259ZM353.462 74.8182L353.439 73.1591H353.712L357.53 69.2727H359.189L355.121 73.3864H355.007L353.462 74.8182ZM352.212 78V66.3636H353.553V78H352.212ZM357.757 78L354.348 73.6818L355.303 72.75L359.462 78H357.757ZM363.851 78.1818C363.124 78.1818 362.482 77.9981 361.925 77.6307C361.368 77.2595 360.932 76.7367 360.618 76.0625C360.304 75.3845 360.146 74.5833 360.146 73.6591C360.146 72.7424 360.304 71.947 360.618 71.2727C360.932 70.5985 361.37 70.0777 361.93 69.7102C362.491 69.3428 363.139 69.1591 363.874 69.1591C364.442 69.1591 364.891 69.2538 365.22 69.4432C365.554 69.6288 365.807 69.8409 365.982 70.0795C366.16 70.3144 366.298 70.5076 366.396 70.6591H366.51V66.3636H367.851V78H366.555V76.6591H366.396C366.298 76.8182 366.158 77.0189 365.976 77.2614C365.794 77.5 365.535 77.714 365.197 77.9034C364.86 78.089 364.411 78.1818 363.851 78.1818ZM364.033 76.9773C364.571 76.9773 365.025 76.8371 365.396 76.5568C365.768 76.2727 366.05 75.8807 366.243 75.3807C366.436 74.8769 366.533 74.2955 366.533 73.6364C366.533 72.9848 366.438 72.4148 366.249 71.9261C366.059 71.4337 365.779 71.0511 365.408 70.7784C365.036 70.5019 364.578 70.3636 364.033 70.3636C363.464 70.3636 362.991 70.5095 362.612 70.8011C362.237 71.089 361.955 71.4811 361.766 71.9773C361.58 72.4697 361.487 73.0227 361.487 73.6364C361.487 74.2576 361.582 74.822 361.771 75.3295C361.964 75.8333 362.249 76.2348 362.624 76.5341C363.002 76.8295 363.472 76.9773 364.033 76.9773ZM374.038 78.1818C373.25 78.1818 372.559 77.9943 371.964 77.6193C371.374 77.2443 370.911 76.7197 370.578 76.0455C370.249 75.3712 370.084 74.5833 370.084 73.6818C370.084 72.7727 370.249 71.9792 370.578 71.3011C370.911 70.6231 371.374 70.0966 371.964 69.7216C372.559 69.3466 373.25 69.1591 374.038 69.1591C374.826 69.1591 375.516 69.3466 376.107 69.7216C376.701 70.0966 377.163 70.6231 377.493 71.3011C377.826 71.9792 377.993 72.7727 377.993 73.6818C377.993 74.5833 377.826 75.3712 377.493 76.0455C377.163 76.7197 376.701 77.2443 376.107 77.6193C375.516 77.9943 374.826 78.1818 374.038 78.1818ZM374.038 76.9773C374.637 76.9773 375.129 76.8239 375.516 76.517C375.902 76.2102 376.188 75.8068 376.374 75.3068C376.559 74.8068 376.652 74.2652 376.652 73.6818C376.652 73.0985 376.559 72.5549 376.374 72.0511C376.188 71.5473 375.902 71.1402 375.516 70.8295C375.129 70.5189 374.637 70.3636 374.038 70.3636C373.44 70.3636 372.947 70.5189 372.561 70.8295C372.175 71.1402 371.889 71.5473 371.703 72.0511C371.518 72.5549 371.425 73.0985 371.425 73.6818C371.425 74.2652 371.518 74.8068 371.703 75.3068C371.889 75.8068 372.175 76.2102 372.561 76.517C372.947 76.8239 373.44 76.9773 374.038 76.9773ZM381.72 78L379.061 69.2727H380.47L382.357 75.9545H382.447L384.311 69.2727H385.743L387.584 75.9318H387.675L389.561 69.2727H390.97L388.311 78H386.993L385.084 71.2955H384.947L383.038 78H381.72ZM394.084 72.75V78H392.743V69.2727H394.038V70.6364H394.152C394.357 70.1932 394.667 69.8371 395.084 69.5682C395.5 69.2955 396.038 69.1591 396.697 69.1591C397.288 69.1591 397.805 69.2803 398.249 69.5227C398.692 69.7614 399.036 70.125 399.283 70.6136C399.529 71.0985 399.652 71.7121 399.652 72.4545V78H398.311V72.5455C398.311 71.8598 398.133 71.3258 397.777 70.9432C397.421 70.5568 396.932 70.3636 396.311 70.3636C395.883 70.3636 395.5 70.4564 395.163 70.642C394.83 70.8277 394.567 71.0985 394.374 71.4545C394.18 71.8106 394.084 72.2424 394.084 72.75ZM404.33 72.9091L404.42 70.4091L402.307 71.75L401.761 70.7955L403.989 69.6364L401.761 68.4773L402.307 67.5227L404.42 68.8636L404.33 66.3636H405.42L405.33 68.8636L407.443 67.5227L407.989 68.4773L405.761 69.6364L407.989 70.7955L407.443 71.75L405.33 70.4091L405.42 72.9091H404.33ZM412.33 72.9091L412.42 70.4091L410.307 71.75L409.761 70.7955L411.989 69.6364L409.761 68.4773L410.307 67.5227L412.42 68.8636L412.33 66.3636H413.42L413.33 68.8636L415.443 67.5227L415.989 68.4773L413.761 69.6364L415.989 70.7955L415.443 71.75L413.33 70.4091L413.42 72.9091H412.33Z" fill="#A1A1AA"/>
<path d="M32.2273 108.386V109.636H27.1364V108.386H32.2273ZM35.2457 116.364V101.818H38.6094V102.932H36.5185V115.25H38.6094V116.364H35.2457ZM47.5653 101.818V116.364H44.2017V115.25H46.2926V102.932H44.2017V101.818H47.5653Z" fill="#A1A1AA"/>
<rect x="62" y="100" width="325" height="16" rx="8" fill="url(#paint1_linear_1000_31507)"/>
<path d="M32.2273 144.386V145.636H27.1364V144.386H32.2273ZM35.2457 152.364V137.818H38.6094V138.932H36.5185V151.25H38.6094V152.364H35.2457ZM47.5653 137.818V152.364H44.2017V151.25H46.2926V138.932H44.2017V137.818H47.5653Z" fill="#A1A1AA"/>
<rect x="62" y="136" width="325" height="16" rx="8" fill="url(#paint2_linear_1000_31507)"/>
<rect x="26" y="168" width="325" height="16" rx="8" fill="url(#paint3_linear_1000_31507)"/>
<path fill-rule="evenodd" clip-rule="evenodd" d="M38.7893 206.389C38.4455 206.045 37.9792 205.852 37.493 205.852C37.0068 205.852 36.5405 206.045 36.1967 206.389L29.7147 212.87C29.1521 213.433 28.836 214.196 28.836 214.991C28.836 215.787 29.1521 216.55 29.7147 217.113C30.2773 217.675 31.0404 217.991 31.836 217.991C32.6317 217.991 33.3947 217.675 33.9573 217.113L39.732 211.338C39.8263 211.247 39.9525 211.197 40.0836 211.198C40.2147 211.199 40.3402 211.251 40.4329 211.344C40.5257 211.437 40.5783 211.562 40.5795 211.693C40.5807 211.824 40.5304 211.95 40.4393 212.045L34.6647 217.82C33.9125 218.56 32.8983 218.973 31.8431 218.969C30.7879 218.964 29.7771 218.543 29.0309 217.797C28.2848 217.051 27.8637 216.04 27.8594 214.985C27.8551 213.93 28.268 212.916 29.008 212.163L35.49 205.681C35.752 205.413 36.0645 205.2 36.4096 205.053C36.7546 204.907 37.1253 204.83 37.5002 204.828C37.875 204.826 38.2466 204.898 38.5933 205.041C38.9401 205.183 39.2551 205.393 39.5201 205.658C39.7852 205.923 39.995 206.238 40.1375 206.585C40.2799 206.932 40.3521 207.303 40.35 207.678C40.3478 208.053 40.2712 208.423 40.1248 208.769C39.9783 209.114 39.7648 209.426 39.4967 209.688L33.368 215.817C33.0401 216.147 32.5947 216.334 32.1293 216.336C31.8993 216.335 31.6717 216.289 31.4597 216.199C31.2476 216.11 31.0551 215.98 30.8933 215.817C30.7627 215.686 30.668 215.503 30.6067 215.333C30.5336 215.131 30.4957 214.917 30.4947 214.702C30.4947 214.235 30.684 213.787 31.0113 213.459L36.4327 208.039C36.4785 207.99 36.5337 207.95 36.595 207.923C36.6563 207.896 36.7225 207.881 36.7897 207.88C36.8568 207.879 36.9235 207.891 36.9857 207.916C37.048 207.941 37.1046 207.979 37.152 208.026C37.1995 208.074 37.2369 208.13 37.2621 208.192C37.2872 208.255 37.2996 208.321 37.2984 208.388C37.2972 208.456 37.2825 208.522 37.2552 208.583C37.2279 208.644 37.1885 208.7 37.1393 208.745L31.7187 214.167C31.5764 214.309 31.4959 214.501 31.4947 214.702C31.4965 214.838 31.5298 214.972 31.592 215.093C31.5987 215.105 31.604 215.112 31.6053 215.115C31.752 215.258 31.9393 215.336 32.1293 215.336C32.3227 215.336 32.516 215.255 32.6613 215.109L38.7893 208.981C38.9597 208.811 39.0948 208.609 39.187 208.387C39.2792 208.164 39.3266 207.926 39.3266 207.685C39.3266 207.444 39.2792 207.205 39.187 206.983C39.0948 206.761 38.9597 206.558 38.7893 206.388V206.389Z" fill="#E4E4E7"/>
<g clip-path="url(#clip0_1000_31507)">
<path d="M67.6768 208.78V208.779L67.6507 208.733C67.0051 207.615 66.0425 206.714 64.8847 206.143C63.7269 205.572 62.4258 205.358 61.146 205.526C59.8661 205.695 58.665 206.239 57.6945 207.09C56.724 207.941 56.0276 209.061 55.6935 210.308C55.3594 211.555 55.4025 212.873 55.8174 214.095C56.2323 215.318 57.0004 216.39 58.0244 217.176C59.0485 217.962 60.2827 218.426 61.5708 218.511C62.8587 218.595 64.1428 218.296 65.2607 217.651C65.3305 217.611 65.4131 217.601 65.4906 217.622L65.5417 217.434L65.4906 217.622C65.5683 217.643 65.6345 217.694 65.6747 217.764C65.7149 217.834 65.726 217.916 65.7054 217.994C65.6849 218.072 65.6346 218.138 65.5655 218.179C62.1522 220.149 57.7873 218.98 55.8167 215.566L55.8167 215.566C53.8459 212.153 55.0153 207.787 58.4292 205.817L58.4292 205.817C61.8419 203.846 66.2078 205.015 68.1786 208.429L68.1787 208.429C68.7325 209.386 69.0557 210.458 69.1228 211.561L69.1238 211.577L69.1275 211.593C69.1329 211.617 69.1357 211.64 69.1357 211.664V213.164V213.164C69.1359 213.645 68.9739 214.112 68.676 214.489C68.3781 214.867 67.9617 215.133 67.4941 215.245C67.0264 215.356 66.5347 215.307 66.0985 215.105C65.6622 214.903 65.3069 214.559 65.0898 214.13L64.9491 213.852L64.7603 214.1C64.2675 214.748 63.5629 215.201 62.7695 215.382C61.9762 215.563 61.1445 215.46 60.4197 215.09C59.6949 214.72 59.1231 214.107 58.8041 213.359C58.4852 212.61 58.4393 211.773 58.6746 210.994C58.9098 210.215 59.4112 209.544 60.0913 209.097C60.7713 208.65 61.5867 208.456 62.3951 208.549C63.2034 208.642 63.9534 209.016 64.514 209.606C65.0746 210.196 65.4102 210.964 65.4621 211.776L65.4628 211.786L65.4646 211.797C65.4676 211.814 65.4691 211.832 65.4691 211.85V211.85V213.164C65.4691 213.57 65.6301 213.958 65.9168 214.245C66.2034 214.532 66.5922 214.693 66.9976 214.693C67.403 214.693 67.7918 214.532 68.0785 214.245C68.3651 213.958 68.5262 213.57 68.5262 213.164V211.987V211.987C68.5254 210.862 68.2326 209.757 67.6768 208.78ZM64.8595 211.998C64.8595 211.239 64.558 210.511 64.0213 209.974C63.4846 209.437 62.7566 209.136 61.9976 209.136C61.2386 209.136 60.5107 209.437 59.974 209.974C59.4373 210.511 59.1357 211.239 59.1357 211.998C59.1357 212.757 59.4373 213.485 59.974 214.021C60.5107 214.558 61.2386 214.859 61.9976 214.859C62.7566 214.859 63.4846 214.558 64.0213 214.021C64.558 213.485 64.8595 212.757 64.8595 211.998Z" fill="#E4E4E7" stroke="#E4E4E7" stroke-width="0.390419"/>
</g>
<path fill-rule="evenodd" clip-rule="evenodd" d="M88.4101 205.17C88.475 205.181 88.5372 205.204 88.5932 205.238C88.6492 205.272 88.6979 205.317 88.7365 205.37C88.775 205.424 88.8028 205.484 88.818 205.548C88.8333 205.612 88.8358 205.678 88.8255 205.743L88.3048 208.997H92.6248L93.1715 205.585C93.1969 205.458 93.2703 205.346 93.3765 205.273C93.4826 205.199 93.6132 205.169 93.7408 205.189C93.8684 205.21 93.9831 205.279 94.0609 205.382C94.1387 205.485 94.1736 205.615 94.1581 205.743L93.6381 208.997H96.1648C96.2974 208.997 96.4246 209.05 96.5183 209.143C96.6121 209.237 96.6648 209.364 96.6648 209.497C96.6648 209.63 96.6121 209.757 96.5183 209.85C96.4246 209.944 96.2974 209.997 96.1648 209.997H93.4781L92.8381 213.997H95.4981C95.6307 213.997 95.7579 214.05 95.8517 214.143C95.9454 214.237 95.9981 214.364 95.9981 214.497C95.9981 214.63 95.9454 214.757 95.8517 214.85C95.7579 214.944 95.6307 214.997 95.4981 214.997H92.6781L92.1581 218.243C92.1327 218.37 92.0593 218.482 91.9531 218.555C91.847 218.629 91.7164 218.659 91.5888 218.638C91.4612 218.618 91.3465 218.549 91.2687 218.446C91.1909 218.342 91.156 218.213 91.1715 218.085L91.6648 214.997H87.3448L86.8248 218.243C86.7994 218.37 86.7259 218.482 86.6198 218.555C86.5136 218.629 86.3831 218.659 86.2555 218.638C86.1279 218.618 86.0131 218.549 85.9353 218.446C85.8575 218.342 85.8227 218.213 85.8381 218.085L86.3315 214.997H83.8281C83.6955 214.997 83.5683 214.944 83.4746 214.85C83.3808 214.757 83.3281 214.63 83.3281 214.497C83.3281 214.364 83.3808 214.237 83.4746 214.143C83.5683 214.05 83.6955 213.997 83.8281 213.997H86.4915L87.1315 209.997H84.4981C84.3655 209.997 84.2383 209.944 84.1446 209.85C84.0508 209.757 83.9981 209.63 83.9981 209.497C83.9981 209.364 84.0508 209.237 84.1446 209.143C84.2383 209.05 84.3655 208.997 84.4981 208.997H87.2915L87.8381 205.585C87.8591 205.454 87.9311 205.337 88.0384 205.259C88.1456 205.182 88.2793 205.149 88.4101 205.17ZM91.8255 213.997L92.4655 209.997H88.1448L87.5048 213.997H91.8248H91.8255Z" fill="#E4E4E7" stroke="#E4E4E7" stroke-width="0.2"/>
<g clip-path="url(#clip1_1000_31507)">
<path d="M119.823 214.938C119.989 214.828 120.145 214.702 120.286 214.561C120.339 214.508 120.38 214.462 120.409 214.429C120.42 214.416 120.429 214.405 120.437 214.395C120.439 214.392 120.442 214.39 120.444 214.387L119.823 214.938ZM119.823 214.938C119.283 215.297 118.647 215.486 117.999 215.481L119.823 214.938ZM120.307 214.245L120.291 214.265C120.288 214.269 120.285 214.272 120.283 214.276C120.276 214.284 120.27 214.291 120.262 214.3C120.234 214.333 120.196 214.375 120.149 214.423C120.016 214.554 119.871 214.672 119.715 214.776L119.715 214.776C119.207 215.113 118.61 215.29 118 215.286L117.997 215.286C117.388 215.29 116.791 215.113 116.283 214.776L116.283 214.776C116.127 214.672 115.982 214.554 115.849 214.422L115.849 214.422C115.799 214.373 115.752 214.32 115.707 214.266C115.596 214.121 115.62 213.921 115.754 213.82L115.769 213.808C115.798 213.789 115.83 213.775 115.864 213.767C115.904 213.757 115.945 213.755 115.986 213.762C116.026 213.768 116.065 213.783 116.1 213.804C116.135 213.826 116.165 213.855 116.188 213.889L116.195 213.899L116.204 213.908C116.328 214.045 116.468 214.165 116.621 214.268L116.622 214.268C117.03 214.539 117.51 214.681 118 214.676C118.615 214.676 119.073 214.472 119.377 214.269C119.53 214.167 119.67 214.046 119.794 213.91L119.794 213.91L119.801 213.901L119.815 213.884L119.816 213.884L119.819 213.879C119.868 213.814 119.941 213.772 120.021 213.761C120.101 213.749 120.182 213.771 120.247 213.819C120.311 213.868 120.354 213.941 120.365 214.021C120.376 214.1 120.355 214.181 120.307 214.245Z" fill="#E4E4E7" stroke="#E4E4E7" stroke-width="0.390419"/>
<path fill-rule="evenodd" clip-rule="evenodd" d="M118.001 204.664C113.951 204.664 110.668 207.947 110.668 211.997C110.668 216.047 113.951 219.331 118.001 219.331C122.051 219.331 125.335 216.047 125.335 211.997C125.335 207.947 122.051 204.664 118.001 204.664ZM111.668 211.997C111.668 210.318 112.335 208.707 113.523 207.519C114.711 206.331 116.322 205.664 118.001 205.664C119.681 205.664 121.292 206.331 122.48 207.519C123.667 208.707 124.335 210.318 124.335 211.997C124.335 213.677 123.667 215.288 122.48 216.476C121.292 217.663 119.681 218.331 118.001 218.331C116.322 218.331 114.711 217.663 113.523 216.476C112.335 215.288 111.668 213.677 111.668 211.997Z" fill="#E4E4E7"/>
<path d="M116.003 211.169C116.003 211.39 115.915 211.602 115.759 211.759C115.602 211.915 115.39 212.003 115.169 212.003C114.948 212.003 114.736 211.915 114.58 211.759C114.424 211.602 114.336 211.39 114.336 211.169C114.336 210.948 114.424 210.736 114.58 210.58C114.736 210.424 114.948 210.336 115.169 210.336C115.39 210.336 115.602 210.424 115.759 210.58C115.915 210.736 116.003 210.948 116.003 211.169ZM120.836 212.003C121.057 212.003 121.269 211.915 121.425 211.759C121.581 211.602 121.669 211.39 121.669 211.169C121.669 210.948 121.581 210.736 121.425 210.58C121.269 210.424 121.057 210.336 120.836 210.336C120.615 210.336 120.403 210.424 120.247 210.58C120.09 210.736 120.003 210.948 120.003 211.169C120.003 211.39 120.09 211.602 120.247 211.759C120.403 211.915 120.615 212.003 120.836 212.003Z" fill="#E4E4E7"/>
</g>
<path d="M142.473 211.331V211.526H142.668H149.335H149.53V211.331V207.164C149.53 207.083 149.562 207.006 149.619 206.949C149.676 206.891 149.754 206.859 149.835 206.859C149.915 206.859 149.993 206.891 150.05 206.949C150.107 207.006 150.139 207.083 150.139 207.164V216.831C150.139 216.912 150.107 216.989 150.05 217.046C149.993 217.103 149.915 217.136 149.835 217.136C149.754 217.136 149.676 217.103 149.619 217.046C149.562 216.989 149.53 216.912 149.53 216.831V212.331V212.136H149.335H142.668H142.473V212.331V216.831C142.473 216.912 142.441 216.989 142.383 217.046C142.326 217.103 142.249 217.136 142.168 217.136C142.087 217.136 142.01 217.103 141.952 217.046C141.895 216.989 141.863 216.912 141.863 216.831V207.164C141.863 207.083 141.895 207.006 141.952 206.949C142.01 206.891 142.087 206.859 142.168 206.859C142.249 206.859 142.326 206.891 142.383 206.949C142.441 207.006 142.473 207.083 142.473 207.164V211.331Z" fill="#E4E4E7" stroke="#E4E4E7" stroke-width="0.390419"/>
<path d="M174.167 206.523H174.167C174.711 206.523 175.244 206.673 175.709 206.955C176.174 207.237 176.552 207.642 176.803 208.124C177.054 208.607 177.168 209.149 177.132 209.692C177.096 210.234 176.911 210.757 176.599 211.202L176.466 211.392L176.675 211.491C177.32 211.795 177.842 212.31 178.155 212.951C178.468 213.592 178.553 214.32 178.397 215.016C178.241 215.711 177.852 216.333 177.295 216.779C176.738 217.224 176.046 217.467 175.333 217.466H175.333H170.833C170.481 217.466 170.195 217.18 170.195 216.828V207.161C170.195 206.809 170.481 206.523 170.833 206.523H174.167ZM171.667 212.466H171.471V212.661V215.995V216.19H171.667H175.333C175.827 216.19 176.301 215.994 176.65 215.645C176.999 215.296 177.195 214.822 177.195 214.328C177.195 213.834 176.999 213.361 176.65 213.012C176.301 212.662 175.827 212.466 175.333 212.466H171.667ZM171.471 210.995V211.19H171.667H174.167H174.167C174.617 211.19 175.048 211.011 175.366 210.693C175.684 210.375 175.862 209.944 175.862 209.494C175.862 209.045 175.683 208.614 175.365 208.296C175.047 207.978 174.616 207.799 174.167 207.8C174.167 207.8 174.167 207.8 174.167 207.8H171.667H171.471V207.995V210.995Z" fill="#E4E4E7" stroke="#E4E4E7" stroke-width="0.390419"/>
<path d="M204.488 207.469H204.362L204.31 207.584L200.425 216.251L200.301 216.526H200.603H202.831C202.912 216.526 202.989 216.558 203.046 216.615C203.103 216.672 203.136 216.75 203.136 216.831C203.136 216.912 203.103 216.989 203.046 217.046C202.989 217.103 202.912 217.136 202.831 217.136H197.164C197.083 217.136 197.006 217.103 196.949 217.046C196.891 216.989 196.859 216.912 196.859 216.831C196.859 216.75 196.891 216.672 196.949 216.615C197.006 216.558 197.083 216.526 197.164 216.526H199.507H199.633L199.685 216.411L203.57 207.744L203.694 207.469H203.392H201.164C201.083 207.469 201.006 207.437 200.949 207.38C200.891 207.322 200.859 207.245 200.859 207.164C200.859 207.083 200.891 207.006 200.949 206.949C201.006 206.891 201.083 206.859 201.164 206.859H206.831C206.912 206.859 206.989 206.891 207.046 206.949C207.103 207.006 207.136 207.083 207.136 207.164C207.136 207.245 207.103 207.322 207.046 207.38C206.989 207.437 206.912 207.469 206.831 207.469H204.488Z" fill="#E4E4E7" stroke="#E4E4E7" stroke-width="0.390419"/>
<path d="M224.195 208.164C224.195 208.083 224.227 208.006 224.284 207.949C224.342 207.891 224.419 207.859 224.5 207.859H233.5C233.581 207.859 233.658 207.891 233.716 207.949C233.773 208.006 233.805 208.083 233.805 208.164C233.805 208.245 233.773 208.322 233.716 208.38C233.658 208.437 233.581 208.469 233.5 208.469H224.5C224.419 208.469 224.342 208.437 224.284 208.38C224.227 208.322 224.195 208.245 224.195 208.164ZM224.5 211.526C224.581 211.526 224.658 211.558 224.716 211.615C224.773 211.672 224.805 211.75 224.805 211.831V216.497C224.805 216.578 224.773 216.656 224.716 216.713C224.658 216.77 224.581 216.802 224.5 216.802C224.419 216.802 224.342 216.77 224.284 216.713C224.227 216.656 224.195 216.578 224.195 216.497V211.831C224.195 211.75 224.227 211.672 224.284 211.615C224.342 211.558 224.419 211.526 224.5 211.526ZM227.529 212.206C227.529 212.125 227.561 212.048 227.618 211.991C227.675 211.933 227.752 211.901 227.833 211.901H235.5C235.581 211.901 235.658 211.933 235.716 211.991C235.773 212.048 235.805 212.125 235.805 212.206C235.805 212.287 235.773 212.364 235.716 212.422C235.658 212.479 235.581 212.511 235.5 212.511H227.833C227.752 212.511 227.675 212.479 227.618 212.422C227.561 212.364 227.529 212.287 227.529 212.206ZM227.529 216.164C227.529 216.083 227.561 216.006 227.618 215.949C227.675 215.891 227.752 215.859 227.833 215.859H235.5C235.581 215.859 235.658 215.891 235.716 215.949C235.773 216.006 235.805 216.083 235.805 216.164C235.805 216.245 235.773 216.322 235.716 216.38C235.658 216.437 235.581 216.469 235.5 216.469H227.833C227.752 216.469 227.675 216.437 227.618 216.38C227.561 216.322 227.529 216.245 227.529 216.164Z" fill="#E4E4E7" stroke="#E4E4E7" stroke-width="0.390419"/>
<path fill-rule="evenodd" clip-rule="evenodd" d="M255.854 207.31C255.948 207.404 256 207.531 256 207.664C256 207.796 255.948 207.923 255.854 208.017L251.874 211.997L255.854 215.977C255.903 216.023 255.943 216.078 255.97 216.139C255.997 216.201 256.012 216.267 256.013 216.334C256.014 216.401 256.002 216.468 255.977 216.53C255.952 216.592 255.914 216.649 255.867 216.696C255.819 216.744 255.763 216.781 255.701 216.806C255.638 216.832 255.572 216.844 255.505 216.843C255.437 216.841 255.371 216.827 255.31 216.799C255.249 216.772 255.193 216.733 255.148 216.684L250.814 212.35C250.721 212.257 250.668 212.129 250.668 211.997C250.668 211.864 250.721 211.737 250.814 211.644L255.148 207.31C255.241 207.217 255.368 207.164 255.501 207.164C255.633 207.164 255.76 207.217 255.854 207.31ZM260.148 207.31C260.054 207.404 260.001 207.531 260.001 207.664C260.001 207.796 260.054 207.923 260.148 208.017L264.128 211.997L260.148 215.977C260.098 216.023 260.059 216.078 260.032 216.139C260.004 216.201 259.99 216.267 259.988 216.334C259.987 216.401 260 216.468 260.025 216.53C260.05 216.592 260.087 216.649 260.135 216.696C260.182 216.744 260.239 216.781 260.301 216.806C260.363 216.832 260.43 216.844 260.497 216.843C260.564 216.841 260.631 216.827 260.692 216.799C260.753 216.772 260.808 216.733 260.854 216.684L265.188 212.35C265.281 212.257 265.334 212.129 265.334 211.997C265.334 211.864 265.281 211.737 265.188 211.644L260.854 207.31C260.76 207.217 260.633 207.164 260.501 207.164C260.368 207.164 260.241 207.217 260.148 207.31Z" fill="#E4E4E7" stroke="#E4E4E7" stroke-width="0.2"/>
<g clip-path="url(#clip2_1000_31507)">
<path d="M284.593 212.825L284.593 212.825C284.543 212.761 284.52 212.68 284.529 212.6C284.539 212.52 284.58 212.446 284.644 212.396C284.707 212.346 284.788 212.324 284.869 212.333C284.949 212.343 285.022 212.384 285.072 212.448C285.318 212.761 285.628 213.019 285.981 213.204L286.072 213.031L285.981 213.204C286.335 213.389 286.723 213.497 287.121 213.521C287.519 213.545 287.918 213.484 288.291 213.343C288.663 213.201 289.002 212.982 289.284 212.7L291.702 210.282C291.964 210.02 292.171 209.71 292.313 209.368C292.455 209.025 292.528 208.659 292.528 208.289C292.528 207.918 292.455 207.552 292.313 207.21C292.171 206.867 291.964 206.557 291.702 206.295C291.44 206.033 291.129 205.825 290.787 205.684C290.445 205.542 290.078 205.469 289.708 205.469C289.338 205.469 288.971 205.542 288.629 205.684C288.287 205.825 287.976 206.033 287.714 206.295L285.716 208.293C285.658 208.348 285.582 208.379 285.502 208.378C285.423 208.377 285.346 208.345 285.29 208.288C285.233 208.232 285.201 208.156 285.2 208.076C285.2 207.996 285.23 207.92 285.285 207.862L287.284 205.864C287.602 205.545 287.98 205.293 288.396 205.12C288.812 204.948 289.258 204.859 289.708 204.859C290.159 204.859 290.605 204.948 291.021 205.12C291.437 205.293 291.815 205.545 292.133 205.864C292.451 206.182 292.704 206.56 292.876 206.976C293.049 207.392 293.137 207.838 293.137 208.288C293.137 208.739 293.049 209.184 292.876 209.6C292.704 210.016 292.451 210.394 292.133 210.713L289.714 213.132L289.714 213.132C289.372 213.474 288.96 213.741 288.507 213.913C288.053 214.085 287.569 214.159 287.085 214.13C286.601 214.101 286.128 213.97 285.699 213.745C285.269 213.52 284.892 213.206 284.593 212.825Z" fill="#E4E4E7" stroke="#E4E4E7" stroke-width="0.390419"/>
<path d="M282.855 211.433C283.117 211.171 283.432 210.967 283.779 210.835C284.126 210.704 284.497 210.647 284.868 210.669C285.238 210.691 285.6 210.792 285.928 210.964C286.257 211.137 286.546 211.377 286.775 211.669C286.815 211.72 286.866 211.763 286.923 211.796C286.98 211.828 287.043 211.848 287.109 211.856C287.174 211.864 287.24 211.859 287.303 211.841C287.367 211.823 287.426 211.793 287.477 211.753C287.529 211.712 287.572 211.662 287.604 211.604C287.637 211.547 287.657 211.484 287.665 211.419C287.673 211.353 287.668 211.287 287.65 211.224C287.632 211.161 287.602 211.102 287.561 211.05C287.245 210.647 286.847 210.316 286.393 210.078C285.939 209.84 285.439 209.701 284.928 209.671C284.416 209.64 283.904 209.718 283.425 209.9C282.946 210.082 282.51 210.364 282.148 210.726L279.729 213.145C279.393 213.481 279.126 213.881 278.944 214.32C278.762 214.76 278.668 215.231 278.668 215.707C278.668 216.183 278.762 216.655 278.944 217.094C279.126 217.534 279.393 217.933 279.729 218.27C280.066 218.607 280.466 218.873 280.905 219.056C281.345 219.238 281.816 219.331 282.292 219.331C282.768 219.331 283.239 219.238 283.679 219.056C284.119 218.873 284.518 218.607 284.855 218.27L286.855 216.27C286.904 216.224 286.943 216.169 286.971 216.108C286.998 216.046 287.013 215.98 287.014 215.913C287.015 215.846 287.003 215.779 286.978 215.717C286.952 215.655 286.915 215.598 286.867 215.551C286.82 215.503 286.763 215.466 286.701 215.441C286.639 215.415 286.572 215.403 286.505 215.404C286.438 215.405 286.372 215.42 286.31 215.447C286.249 215.475 286.194 215.514 286.148 215.563L284.148 217.563C283.904 217.807 283.615 218 283.297 218.132C282.978 218.264 282.637 218.332 282.292 218.332C281.596 218.332 280.929 218.055 280.436 217.563C280.193 217.319 279.999 217.03 279.868 216.711C279.736 216.393 279.668 216.052 279.668 215.707C279.668 215.011 279.945 214.343 280.437 213.851L282.855 211.433Z" fill="#E4E4E7"/>
</g>
<path d="M309 208.328C308.912 208.417 308.792 208.466 308.667 208.466C308.542 208.466 308.422 208.417 308.333 208.328C308.245 208.24 308.195 208.12 308.195 207.995C308.195 207.87 308.245 207.75 308.333 207.661C308.422 207.573 308.542 207.523 308.667 207.523C308.792 207.523 308.912 207.573 309 207.661C309.088 207.75 309.138 207.87 309.138 207.995C309.138 208.12 309.088 208.24 309 208.328ZM311.618 207.946C311.675 207.889 311.752 207.857 311.833 207.857H319.5C319.581 207.857 319.658 207.889 319.716 207.946C319.773 208.003 319.805 208.081 319.805 208.161C319.805 208.242 319.773 208.32 319.716 208.377C319.658 208.434 319.581 208.466 319.5 208.466H311.833C311.752 208.466 311.675 208.434 311.618 208.377C311.561 208.32 311.529 208.242 311.529 208.161C311.529 208.081 311.561 208.003 311.618 207.946ZM311.618 211.946C311.675 211.889 311.752 211.857 311.833 211.857H319.5C319.581 211.857 319.658 211.889 319.716 211.946C319.773 212.003 319.805 212.081 319.805 212.161C319.805 212.242 319.773 212.32 319.716 212.377C319.658 212.434 319.581 212.466 319.5 212.466H311.833C311.752 212.466 311.675 212.434 311.618 212.377C311.561 212.32 311.529 212.242 311.529 212.161C311.529 212.081 311.561 212.003 311.618 211.946ZM311.618 215.946C311.675 215.889 311.752 215.857 311.833 215.857H319.5C319.581 215.857 319.658 215.889 319.716 215.946C319.773 216.003 319.805 216.081 319.805 216.161C319.805 216.242 319.773 216.32 319.716 216.377C319.658 216.434 319.581 216.466 319.5 216.466H311.833C311.752 216.466 311.675 216.434 311.618 216.377C311.561 216.32 311.529 216.242 311.529 216.161C311.529 216.081 311.561 216.003 311.618 215.946ZM309.138 211.995C309.138 212.12 309.088 212.24 309 212.328C308.912 212.417 308.792 212.466 308.667 212.466C308.542 212.466 308.422 212.417 308.333 212.328C308.245 212.24 308.195 212.12 308.195 211.995C308.195 211.87 308.245 211.75 308.333 211.661C308.422 211.573 308.542 211.523 308.667 211.523C308.792 211.523 308.912 211.573 309 211.661C309.088 211.75 309.138 211.87 309.138 211.995ZM309 216.328C308.912 216.417 308.792 216.466 308.667 216.466C308.542 216.466 308.422 216.417 308.333 216.328C308.245 216.24 308.195 216.12 308.195 215.995C308.195 215.87 308.245 215.75 308.333 215.661C308.422 215.573 308.542 215.523 308.667 215.523C308.792 215.523 308.912 215.573 309 215.661L309.138 215.523L309 215.661C309.088 215.75 309.138 215.87 309.138 215.995C309.138 216.12 309.088 216.24 309 216.328Z" fill="#E4E4E7" stroke="#E4E4E7" stroke-width="0.390419"/>
<path d="M334.668 217C334.668 216.867 334.721 216.74 334.815 216.647L335.815 215.647C335.941 215.519 336.06 215.407 336.161 215.311L336.259 215.217C336.384 215.098 336.467 215.013 336.528 214.938C336.622 214.82 336.668 214.721 336.668 214.5C336.668 214.302 336.599 214.191 336.523 214.123L336.841 216.043C336.821 216.063 336.801 216.082 336.78 216.102C336.7 216.179 336.614 216.26 336.521 216.353L336.403 216.471H336.208V216.667L336.346 216.805L336.484 216.667H337.335C337.467 216.667 337.594 216.719 337.688 216.813C337.782 216.907 337.835 217.034 337.835 217.167C337.835 217.299 337.782 217.426 337.688 217.52C337.594 217.614 337.467 217.667 337.335 217.667H335.168C334.892 217.667 334.668 217.443 334.668 217.167V217ZM334.668 217L334.863 217C334.863 217 334.863 217 334.863 217M334.668 217H334.863V217M334.863 217C334.863 216.919 334.895 216.842 334.953 216.785L334.953 216.785L335.953 215.785L335.953 215.784C336.077 215.659 336.194 215.548 336.296 215.452L336.296 215.452L336.394 215.359L336.394 215.358C336.52 215.238 336.61 215.146 336.679 215.061L336.679 215.061L336.681 215.06C336.735 214.991 336.784 214.918 336.818 214.822C336.85 214.727 336.863 214.623 336.863 214.5C336.863 214.248 336.772 214.083 336.653 213.978L336.653 213.977C336.529 213.867 336.354 213.805 336.17 213.805M334.863 217V217.167C334.863 217.335 335 217.471 335.168 217.471H337.335C337.415 217.471 337.493 217.439 337.55 217.382C337.607 217.325 337.639 217.247 337.639 217.167C337.639 217.086 337.607 217.008 337.55 216.951C337.493 216.894 337.415 216.862 337.335 216.862H336.208H335.737L336.07 216.529L336.383 216.215C336.478 216.12 336.565 216.037 336.646 215.96C336.666 215.941 336.686 215.921 336.706 215.902L336.707 215.901L336.817 215.797L336.819 215.796L336.819 215.796C336.939 215.684 337.052 215.565 337.157 215.439M336.17 213.805L337.156 215.44C337.157 215.439 337.157 215.439 337.157 215.439M336.17 213.805C336.169 213.805 336.169 213.805 336.168 213.805V214L336.172 213.805C336.172 213.805 336.171 213.805 336.17 213.805ZM336.17 213.805C335.994 213.801 335.823 213.861 335.688 213.974L335.688 213.974L335.683 213.978C335.564 214.083 335.473 214.25 335.473 214.5C335.473 214.581 335.441 214.658 335.383 214.715C335.326 214.773 335.249 214.805 335.168 214.805C335.087 214.805 335.01 214.773 334.952 214.715C334.895 214.658 334.863 214.581 334.863 214.5C334.863 214.084 335.022 213.75 335.278 213.523L336.17 213.805ZM337.157 215.439C337.367 215.176 337.473 214.901 337.473 214.5C337.473 214.084 337.314 213.75 337.059 213.522M337.157 215.439L337.059 213.522M337.059 213.522C336.812 213.309 336.496 213.192 336.17 213.195L336.168 213.195C335.853 213.195 335.528 213.3 335.278 213.522L337.059 213.522ZM336.312 206.231L336.312 206.231C336.36 206.257 336.401 206.296 336.429 206.343C336.458 206.391 336.473 206.445 336.473 206.5C336.473 206.5 336.473 206.5 336.473 206.5V209.667V209.862H336.668H337.168C337.249 209.862 337.326 209.894 337.383 209.951C337.441 210.008 337.473 210.086 337.473 210.167C337.473 210.247 337.441 210.325 337.383 210.382C337.326 210.439 337.249 210.471 337.168 210.471H335.168C335.087 210.471 335.01 210.439 334.952 210.382C334.895 210.325 334.863 210.247 334.863 210.167C334.863 210.086 334.895 210.008 334.952 209.951C335.01 209.894 335.087 209.862 335.168 209.862H335.668H335.863V209.667V207.434V207.069L335.56 207.272L335.338 207.42C335.271 207.463 335.189 207.478 335.111 207.462C335.033 207.446 334.963 207.399 334.919 207.333C334.874 207.266 334.858 207.184 334.873 207.105C334.889 207.027 334.934 206.958 335 206.912L335.999 206.246C335.999 206.246 335.999 206.246 335.999 206.246C336.045 206.216 336.098 206.198 336.153 206.196C336.208 206.193 336.263 206.205 336.312 206.231ZM339.619 207.951C339.676 207.894 339.754 207.862 339.835 207.862H347.501C347.582 207.862 347.66 207.894 347.717 207.951C347.774 208.008 347.806 208.086 347.806 208.167C347.806 208.247 347.774 208.325 347.717 208.382C347.66 208.439 347.582 208.471 347.501 208.471H339.835C339.754 208.471 339.676 208.439 339.619 208.382C339.562 208.325 339.53 208.247 339.53 208.167C339.53 208.086 339.562 208.008 339.619 207.951ZM339.619 211.951C339.676 211.894 339.754 211.862 339.835 211.862H347.501C347.582 211.862 347.66 211.894 347.717 211.951C347.774 212.008 347.806 212.086 347.806 212.167C347.806 212.247 347.774 212.325 347.717 212.382C347.66 212.439 347.582 212.471 347.501 212.471H339.835C339.754 212.471 339.676 212.439 339.619 212.382C339.562 212.325 339.53 212.247 339.53 212.167C339.53 212.086 339.562 212.008 339.619 211.951ZM339.619 215.951C339.676 215.894 339.754 215.862 339.835 215.862H347.501C347.582 215.862 347.66 215.894 347.717 215.951C347.774 216.008 347.806 216.086 347.806 216.167C347.806 216.247 347.774 216.325 347.717 216.382C347.66 216.439 347.582 216.471 347.501 216.471H339.835C339.754 216.471 339.676 216.439 339.619 216.382C339.562 216.325 339.53 216.247 339.53 216.167C339.53 216.086 339.562 216.008 339.619 215.951Z" fill="#E4E4E7" stroke="#E4E4E7" stroke-width="0.390419"/>
<path d="M364.805 210.995V211.19H365H367.667H367.862V210.995V208.328V208.133H367.667H365H364.805V208.328V210.995ZM364.195 207.995C364.195 207.87 364.245 207.75 364.333 207.661C364.422 207.573 364.542 207.523 364.667 207.523H368C368.125 207.523 368.245 207.573 368.333 207.661C368.422 207.75 368.471 207.87 368.471 207.995V211.328C368.471 211.453 368.422 211.573 368.333 211.661C368.245 211.75 368.125 211.8 368 211.8H364.667C364.542 211.8 364.422 211.75 364.333 211.661C364.245 211.573 364.195 211.453 364.195 211.328V207.995Z" fill="#E4E4E7" stroke="#E4E4E7" stroke-width="0.390419"/>
<path d="M370.501 207.664C370.368 207.664 370.241 207.717 370.147 207.811C370.053 207.904 370.001 208.031 370.001 208.164C370.001 208.297 370.053 208.424 370.147 208.518C370.241 208.611 370.368 208.664 370.501 208.664H375.501C375.633 208.664 375.761 208.611 375.854 208.518C375.948 208.424 376.001 208.297 376.001 208.164C376.001 208.031 375.948 207.904 375.854 207.811C375.761 207.717 375.633 207.664 375.501 207.664H370.501ZM370.501 211.664C370.368 211.664 370.241 211.717 370.147 211.811C370.053 211.904 370.001 212.031 370.001 212.164C370.001 212.297 370.053 212.424 370.147 212.518C370.241 212.611 370.368 212.664 370.501 212.664H375.501C375.633 212.664 375.761 212.611 375.854 212.518C375.948 212.424 376.001 212.297 376.001 212.164C376.001 212.031 375.948 211.904 375.854 211.811C375.761 211.717 375.633 211.664 375.501 211.664H370.501ZM370.501 215.664C370.368 215.664 370.241 215.717 370.147 215.811C370.053 215.904 370.001 216.031 370.001 216.164C370.001 216.297 370.053 216.424 370.147 216.518C370.241 216.611 370.368 216.664 370.501 216.664H375.501C375.633 216.664 375.761 216.611 375.854 216.518C375.948 216.424 376.001 216.297 376.001 216.164C376.001 216.031 375.948 215.904 375.854 215.811C375.761 215.717 375.633 215.664 375.501 215.664H370.501ZM368.521 213.977C368.614 214.071 368.667 214.198 368.667 214.331C368.667 214.463 368.614 214.59 368.521 214.684L366.187 217.017C366.094 217.111 365.967 217.164 365.834 217.164C365.702 217.164 365.575 217.111 365.481 217.017L364.147 215.684C364.098 215.638 364.059 215.583 364.032 215.522C364.004 215.46 363.99 215.394 363.988 215.327C363.987 215.26 364 215.193 364.025 215.131C364.05 215.069 364.087 215.012 364.135 214.965C364.182 214.917 364.239 214.88 364.301 214.855C364.363 214.829 364.43 214.817 364.497 214.818C364.564 214.82 364.63 214.834 364.692 214.862C364.753 214.889 364.808 214.928 364.854 214.977L365.834 215.957L367.814 213.977C367.908 213.884 368.035 213.831 368.167 213.831C368.3 213.831 368.427 213.884 368.521 213.977Z" fill="#E4E4E7"/>
<path d="M1 14C1 6.26802 7.26801 0 15 0H387V239H15C7.26801 239 1 232.732 1 225V14Z" fill="url(#paint4_linear_1000_31507)"/>
<rect x="1.58452" y="0.584523" width="390.831" height="237.831" rx="13.4155" stroke="url(#paint5_diamond_1000_31507)" stroke-width="1.16905"/>
<defs>
<linearGradient id="paint0_linear_1000_31507" x1="41.3529" y1="21.0882" x2="226.559" y2="344.777" gradientUnits="userSpaceOnUse">
<stop stop-color="white" stop-opacity="0.08"/>
<stop offset="0.989583" stop-color="white" stop-opacity="0"/>
</linearGradient>
<linearGradient id="paint1_linear_1000_31507" x1="73.9023" y1="107.997" x2="411.747" y2="107.997" gradientUnits="userSpaceOnUse">
<stop stop-color="#3F3F46"/>
<stop offset="1" stop-color="#3F3F46" stop-opacity="0"/>
</linearGradient>
<linearGradient id="paint2_linear_1000_31507" x1="73.9023" y1="143.997" x2="411.747" y2="143.997" gradientUnits="userSpaceOnUse">
<stop stop-color="#3F3F46"/>
<stop offset="1" stop-color="#3F3F46" stop-opacity="0"/>
</linearGradient>
<linearGradient id="paint3_linear_1000_31507" x1="37.9023" y1="175.997" x2="375.747" y2="175.997" gradientUnits="userSpaceOnUse">
<stop stop-color="#3F3F46"/>
<stop offset="1" stop-color="#3F3F46" stop-opacity="0"/>
</linearGradient>
<linearGradient id="paint4_linear_1000_31507" x1="350.096" y1="220.615" x2="-11.2472" y2="32.1306" gradientUnits="userSpaceOnUse">
<stop stop-color="#18181B"/>
<stop offset="1" stop-color="#18181B" stop-opacity="0.34"/>
</linearGradient>
<radialGradient id="paint5_diamond_1000_31507" cx="0" cy="0" r="1" gradientUnits="userSpaceOnUse" gradientTransform="translate(1 11.8939) rotate(58.2492) scale(267.028 873.68)">
<stop stop-color="#3F3F46"/>
<stop offset="1" stop-color="#3F3F46" stop-opacity="0"/>
</radialGradient>
<clipPath id="clip0_1000_31507">
<rect width="16" height="16" fill="white" transform="translate(54 204)"/>
</clipPath>
<clipPath id="clip1_1000_31507">
<rect width="16" height="16" fill="white" transform="translate(110 204)"/>
</clipPath>
<clipPath id="clip2_1000_31507">
<rect width="16" height="16" fill="white" transform="translate(278 204)"/>
</clipPath>
</defs>
</svg>
