<svg width="243" height="198" viewBox="0 0 243 198" fill="none" xmlns="http://www.w3.org/2000/svg">
<g clip-path="url(#clip0_964_29309)">
<path d="M14 1.36719H241.5V202.867C241.5 210.323 235.456 216.367 228 216.367H14C6.54416 216.367 0.5 210.323 0.5 202.867V14.8672C0.5 7.41134 6.54416 1.36719 14 1.36719Z" fill="url(#paint0_linear_964_29309)"/>
<path d="M26.3395 28.4531C26.2732 27.8329 25.9938 27.3499 25.5014 27.0043C25.0137 26.6586 24.3793 26.4858 23.598 26.4858C23.0488 26.4858 22.5777 26.5687 22.1847 26.7344C21.7917 26.9001 21.491 27.125 21.2827 27.4091C21.0743 27.6932 20.9678 28.0175 20.9631 28.3821C20.9631 28.6851 21.0317 28.9479 21.169 29.1705C21.3111 29.393 21.5028 29.5824 21.7443 29.7386C21.9858 29.8902 22.2533 30.018 22.5469 30.1222C22.8404 30.2263 23.1364 30.3139 23.4347 30.3849L24.7983 30.7259C25.3475 30.8537 25.8755 31.0265 26.3821 31.2443C26.8935 31.4621 27.3504 31.7367 27.7528 32.0682C28.16 32.3996 28.482 32.7997 28.7188 33.2685C28.9555 33.7372 29.0739 34.2865 29.0739 34.9162C29.0739 35.7685 28.8561 36.5189 28.4205 37.1676C27.9848 37.8116 27.3551 38.3158 26.5312 38.6804C25.7121 39.0402 24.7202 39.2202 23.5554 39.2202C22.4238 39.2202 21.4413 39.045 20.608 38.6946C19.7794 38.3442 19.1307 37.8329 18.6619 37.1605C18.1979 36.4882 17.947 35.669 17.9091 34.7031H20.5014C20.5393 35.2098 20.6955 35.6312 20.9702 35.9673C21.2448 36.3035 21.6023 36.5545 22.0426 36.7202C22.4877 36.8859 22.9848 36.9688 23.5341 36.9688C24.107 36.9688 24.6089 36.8835 25.0398 36.7131C25.4754 36.5379 25.8163 36.2964 26.0625 35.9886C26.3087 35.6761 26.4342 35.3116 26.4389 34.8949C26.4342 34.5161 26.3229 34.2036 26.1051 33.9574C25.8873 33.7064 25.5819 33.4981 25.1889 33.3324C24.8007 33.1619 24.3461 33.0104 23.8253 32.8778L22.1705 32.4517C20.9725 32.1439 20.0256 31.6776 19.3295 31.0526C18.6383 30.4228 18.2926 29.5871 18.2926 28.5455C18.2926 27.6884 18.5246 26.938 18.9886 26.294C19.4574 25.6501 20.0942 25.1506 20.8991 24.7955C21.7041 24.4356 22.6155 24.2557 23.6335 24.2557C24.6657 24.2557 25.5701 24.4356 26.3466 24.7955C27.1278 25.1506 27.741 25.6454 28.1861 26.2798C28.6312 26.9096 28.8608 27.634 28.875 28.4531H26.3395ZM33.8803 32.608V39H31.3093V24.4545H33.8235V29.9446H33.9513C34.207 29.3291 34.6024 28.8437 35.1374 28.4886C35.6772 28.1288 36.3638 27.9489 37.1971 27.9489C37.9547 27.9489 38.6152 28.1075 39.1786 28.4247C39.7421 28.742 40.1777 29.206 40.4854 29.8168C40.7979 30.4276 40.9542 31.1733 40.9542 32.054V39H38.3832V32.4517C38.3832 31.7178 38.1938 31.1473 37.815 30.7401C37.4409 30.3281 36.9154 30.1222 36.2383 30.1222C35.7837 30.1222 35.3765 30.2216 35.0167 30.4205C34.6616 30.6146 34.3822 30.8963 34.1786 31.2656C33.9798 31.6349 33.8803 32.0824 33.8803 32.608ZM48.3335 39.2131C47.2681 39.2131 46.3448 38.9787 45.5636 38.5099C44.7823 38.0412 44.1763 37.3854 43.7454 36.5426C43.3192 35.6998 43.1062 34.715 43.1062 33.5881C43.1062 32.4612 43.3192 31.474 43.7454 30.6264C44.1763 29.7789 44.7823 29.1207 45.5636 28.652C46.3448 28.1832 47.2681 27.9489 48.3335 27.9489C49.3988 27.9489 50.3221 28.1832 51.1033 28.652C51.8846 29.1207 52.4883 29.7789 52.9144 30.6264C53.3453 31.474 53.5607 32.4612 53.5607 33.5881C53.5607 34.715 53.3453 35.6998 52.9144 36.5426C52.4883 37.3854 51.8846 38.0412 51.1033 38.5099C50.3221 38.9787 49.3988 39.2131 48.3335 39.2131ZM48.3477 37.1534C48.9253 37.1534 49.4083 36.9948 49.7965 36.6776C50.1848 36.3556 50.4736 35.9247 50.663 35.3849C50.8571 34.8452 50.9542 34.2438 50.9542 33.581C50.9542 32.9134 50.8571 32.3097 50.663 31.7699C50.4736 31.2254 50.1848 30.7921 49.7965 30.4702C49.4083 30.1482 48.9253 29.9872 48.3477 29.9872C47.7558 29.9872 47.2634 30.1482 46.8704 30.4702C46.4821 30.7921 46.1909 31.2254 45.9968 31.7699C45.8074 32.3097 45.7127 32.9134 45.7127 33.581C45.7127 34.2438 45.8074 34.8452 45.9968 35.3849C46.1909 35.9247 46.4821 36.3556 46.8704 36.6776C47.2634 36.9948 47.7558 37.1534 48.3477 37.1534ZM55.7429 39V28.0909H58.2358V29.9091H58.3494C58.5483 29.2794 58.8892 28.794 59.3722 28.4531C59.8598 28.1075 60.4162 27.9347 61.0412 27.9347C61.1832 27.9347 61.3419 27.9418 61.517 27.956C61.697 27.9654 61.8461 27.982 61.9645 28.0057V30.3707C61.8556 30.3329 61.6828 30.2997 61.446 30.2713C61.214 30.2382 60.9891 30.2216 60.7713 30.2216C60.3026 30.2216 59.8812 30.3234 59.5071 30.527C59.1378 30.7259 58.8466 31.0028 58.6335 31.358C58.4205 31.7131 58.3139 32.1226 58.3139 32.5866V39H55.7429ZM69.706 28.0909V30.0795H63.4347V28.0909H69.706ZM64.983 25.4773H67.554V35.7188C67.554 36.0644 67.6061 36.3295 67.7102 36.5142C67.8191 36.6941 67.9612 36.8172 68.1364 36.8835C68.3116 36.9498 68.5057 36.983 68.7188 36.983C68.8797 36.983 69.0265 36.9711 69.1591 36.9474C69.2964 36.9238 69.4006 36.9025 69.4716 36.8835L69.9048 38.8935C69.7675 38.9408 69.571 38.9929 69.3153 39.0497C69.0644 39.1065 68.7566 39.1397 68.392 39.1491C67.7481 39.1681 67.1681 39.071 66.652 38.858C66.1359 38.6402 65.7263 38.304 65.4233 37.8494C65.125 37.3949 64.9782 36.8267 64.983 36.1449V25.4773ZM76.4975 39.2131C75.4085 39.2131 74.4734 38.974 73.6921 38.4957C72.9156 38.0175 72.3166 37.357 71.8952 36.5142C71.4786 35.6667 71.2702 34.6913 71.2702 33.5881C71.2702 32.4801 71.4833 31.5024 71.9094 30.6548C72.3356 29.8026 72.9369 29.1397 73.7134 28.6662C74.4947 28.188 75.418 27.9489 76.4833 27.9489C77.3687 27.9489 78.1523 28.1122 78.8342 28.4389C79.5207 28.7609 80.0676 29.2178 80.4748 29.8097C80.882 30.3968 81.114 31.0833 81.1708 31.8693H78.7134C78.614 31.3437 78.3772 30.9058 78.0032 30.5554C77.6339 30.2003 77.1391 30.0227 76.5188 30.0227C75.9933 30.0227 75.5316 30.1648 75.1339 30.4489C74.7362 30.7282 74.426 31.1307 74.2035 31.6562C73.9857 32.1818 73.8768 32.8116 73.8768 33.5455C73.8768 34.2888 73.9857 34.928 74.2035 35.4631C74.4213 35.9934 74.7267 36.4029 75.1197 36.6918C75.5174 36.9759 75.9838 37.1179 76.5188 37.1179C76.8976 37.1179 77.2362 37.0469 77.5344 36.9048C77.8375 36.758 78.0908 36.5473 78.2944 36.2727C78.498 35.9981 78.6377 35.6643 78.7134 35.2713H81.1708C81.1093 36.0431 80.882 36.7273 80.489 37.3239C80.096 37.9157 79.561 38.3797 78.8839 38.7159C78.2068 39.0473 77.4113 39.2131 76.4975 39.2131ZM90.2351 34.4119V28.0909H92.8061V39H90.3132V37.0611H90.1996C89.9534 37.6719 89.5485 38.1714 88.9851 38.5597C88.4264 38.9479 87.7375 39.142 86.9183 39.142C86.2034 39.142 85.5713 38.9834 85.022 38.6662C84.4775 38.3442 84.0514 37.8778 83.7436 37.267C83.4358 36.6515 83.282 35.9081 83.282 35.0369V28.0909H85.853V34.6392C85.853 35.3305 86.0424 35.8797 86.4212 36.2869C86.8 36.6941 87.2971 36.8977 87.9126 36.8977C88.2914 36.8977 88.6584 36.8054 89.0135 36.6207C89.3686 36.4361 89.6598 36.1615 89.8871 35.7969C90.1191 35.4276 90.2351 34.9659 90.2351 34.4119ZM100.897 28.0909V30.0795H94.6261V28.0909H100.897ZM96.1744 25.4773H98.7454V35.7188C98.7454 36.0644 98.7975 36.3295 98.9016 36.5142C99.0105 36.6941 99.1526 36.8172 99.3278 36.8835C99.503 36.9498 99.6971 36.983 99.9102 36.983C100.071 36.983 100.218 36.9711 100.35 36.9474C100.488 36.9238 100.592 36.9025 100.663 36.8835L101.096 38.8935C100.959 38.9408 100.762 38.9929 100.507 39.0497C100.256 39.1065 99.948 39.1397 99.5835 39.1491C98.9395 39.1681 98.3595 39.071 97.8434 38.858C97.3273 38.6402 96.9177 38.304 96.6147 37.8494C96.3164 37.3949 96.1696 36.8267 96.1744 36.1449V25.4773ZM111.513 30.9744L109.17 31.2301C109.103 30.9934 108.987 30.7708 108.822 30.5625C108.661 30.3542 108.443 30.1861 108.168 30.0582C107.894 29.9304 107.558 29.8665 107.16 29.8665C106.625 29.8665 106.175 29.9825 105.81 30.2145C105.451 30.4465 105.273 30.7472 105.278 31.1165C105.273 31.4337 105.389 31.6918 105.626 31.8906C105.867 32.0895 106.265 32.2528 106.819 32.3807L108.68 32.7784C109.712 33.0009 110.479 33.3537 110.981 33.8366C111.487 34.3196 111.743 34.9517 111.748 35.733C111.743 36.4195 111.542 37.0256 111.144 37.5511C110.751 38.072 110.204 38.4792 109.504 38.7727C108.803 39.0663 107.998 39.2131 107.089 39.2131C105.754 39.2131 104.679 38.9337 103.864 38.375C103.05 37.8116 102.565 37.0279 102.408 36.0241L104.915 35.7827C105.029 36.2751 105.271 36.6468 105.64 36.8977C106.009 37.1487 106.49 37.2741 107.082 37.2741C107.692 37.2741 108.183 37.1487 108.552 36.8977C108.926 36.6468 109.113 36.3366 109.113 35.9673C109.113 35.6548 108.992 35.3968 108.751 35.1932C108.514 34.9896 108.145 34.8333 107.643 34.7244L105.782 34.3338C104.736 34.116 103.961 33.7491 103.46 33.233C102.958 32.7121 102.709 32.054 102.714 31.2585C102.709 30.5862 102.891 30.0038 103.261 29.5114C103.635 29.0142 104.153 28.6307 104.816 28.3608C105.484 28.0862 106.253 27.9489 107.124 27.9489C108.403 27.9489 109.409 28.2211 110.143 28.7656C110.881 29.3101 111.338 30.0464 111.513 30.9744Z" fill="white"/>
<rect x="17" y="63.4219" width="129" height="14" rx="7" fill="url(#paint1_linear_964_29309)"/>
<g clip-path="url(#clip1_964_29309)">
<g filter="url(#filter0_b_964_29309)">
<rect x="164" y="56.8672" width="26" height="27.1125" rx="3" fill="#27272A"/>
<path d="M172.417 78.3344C171.611 78.3344 170.924 78.0338 170.354 77.4327C169.785 76.8316 169.5 76.1058 169.5 75.2555C169.5 74.4051 169.785 73.6794 170.354 73.0782C170.924 72.4771 171.611 72.1766 172.417 72.1766H173.667V68.6578H172.417C171.611 68.6578 170.924 68.3573 170.354 67.7561C169.785 67.155 169.5 66.4293 169.5 65.5789C169.5 64.7285 169.785 64.0028 170.354 63.4017C170.924 62.8006 171.611 62.5 172.417 62.5C173.222 62.5 173.91 62.8006 174.479 63.4017C175.049 64.0028 175.333 64.7285 175.333 65.5789V66.8984H178.667V65.5789C178.667 64.7285 178.951 64.0028 179.521 63.4017C180.09 62.8006 180.778 62.5 181.583 62.5C182.389 62.5 183.076 62.8006 183.646 63.4017C184.215 64.0028 184.5 64.7285 184.5 65.5789C184.5 66.4293 184.215 67.155 183.646 67.7561C183.076 68.3573 182.389 68.6578 181.583 68.6578H180.333V72.1766H181.583C182.389 72.1766 183.076 72.4771 183.646 73.0782C184.215 73.6794 184.5 74.4051 184.5 75.2555C184.5 76.1058 184.215 76.8316 183.646 77.4327C183.076 78.0338 182.389 78.3344 181.583 78.3344C180.778 78.3344 180.09 78.0338 179.521 77.4327C178.951 76.8316 178.667 76.1058 178.667 75.2555V73.9359H175.333V75.2555C175.333 76.1058 175.049 76.8316 174.479 77.4327C173.91 78.0338 173.222 78.3344 172.417 78.3344ZM172.417 76.575C172.764 76.575 173.059 76.4466 173.302 76.1897C173.545 75.9334 173.667 75.622 173.667 75.2555V73.9359H172.417C172.069 73.9359 171.774 74.0644 171.532 74.3212C171.288 74.5775 171.167 74.8889 171.167 75.2555C171.167 75.622 171.288 75.9334 171.532 76.1897C171.774 76.4466 172.069 76.575 172.417 76.575ZM181.583 76.575C181.931 76.575 182.226 76.4466 182.468 76.1897C182.712 75.9334 182.833 75.622 182.833 75.2555C182.833 74.8889 182.712 74.5775 182.468 74.3212C182.226 74.0644 181.931 73.9359 181.583 73.9359H180.333V75.2555C180.333 75.622 180.455 75.9334 180.698 76.1897C180.941 76.4466 181.236 76.575 181.583 76.575ZM175.333 72.1766H178.667V68.6578H175.333V72.1766ZM172.417 66.8984H173.667V65.5789C173.667 65.2124 173.545 64.901 173.302 64.6447C173.059 64.3878 172.764 64.2594 172.417 64.2594C172.069 64.2594 171.774 64.3878 171.532 64.6447C171.288 64.901 171.167 65.2124 171.167 65.5789C171.167 65.9454 171.288 66.2569 171.532 66.5131C171.774 66.77 172.069 66.8984 172.417 66.8984ZM180.333 66.8984H181.583C181.931 66.8984 182.226 66.77 182.468 66.5131C182.712 66.2569 182.833 65.9454 182.833 65.5789C182.833 65.2124 182.712 64.901 182.468 64.6447C182.226 64.3878 181.931 64.2594 181.583 64.2594C181.236 64.2594 180.941 64.3878 180.698 64.6447C180.455 64.901 180.333 65.2124 180.333 65.5789V66.8984Z" fill="#D4D4D8"/>
<rect x="164.5" y="57.3672" width="25" height="26.1125" rx="2.5" stroke="#3F3F46"/>
</g>
<g filter="url(#filter1_b_964_29309)">
<rect x="196" y="56.8672" width="26" height="27.1125" rx="3" fill="#27272A"/>
<path d="M210.335 64.4964V76.4922H208.214V64.4964H210.335Z" fill="#D4D4D8"/>
<rect x="196.5" y="57.3672" width="25" height="26.1125" rx="2.5" stroke="#3F3F46"/>
</g>
</g>
<rect x="17" y="103.531" width="129" height="14" rx="7" fill="url(#paint2_linear_964_29309)"/>
<g clip-path="url(#clip2_964_29309)">
<g filter="url(#filter2_b_964_29309)">
<rect x="164" y="96.9766" width="26" height="27.1125" rx="3" fill="#27272A"/>
<path d="M172.417 118.444C171.611 118.444 170.924 118.143 170.354 117.542C169.785 116.941 169.5 116.215 169.5 115.365C169.5 114.514 169.785 113.789 170.354 113.188C170.924 112.586 171.611 112.286 172.417 112.286H173.667V108.767H172.417C171.611 108.767 170.924 108.467 170.354 107.866C169.785 107.264 169.5 106.539 169.5 105.688C169.5 104.838 169.785 104.112 170.354 103.511C170.924 102.91 171.611 102.609 172.417 102.609C173.222 102.609 173.91 102.91 174.479 103.511C175.049 104.112 175.333 104.838 175.333 105.688V107.008H178.667V105.688C178.667 104.838 178.951 104.112 179.521 103.511C180.09 102.91 180.778 102.609 181.583 102.609C182.389 102.609 183.076 102.91 183.646 103.511C184.215 104.112 184.5 104.838 184.5 105.688C184.5 106.539 184.215 107.264 183.646 107.866C183.076 108.467 182.389 108.767 181.583 108.767H180.333V112.286H181.583C182.389 112.286 183.076 112.586 183.646 113.188C184.215 113.789 184.5 114.514 184.5 115.365C184.5 116.215 184.215 116.941 183.646 117.542C183.076 118.143 182.389 118.444 181.583 118.444C180.778 118.444 180.09 118.143 179.521 117.542C178.951 116.941 178.667 116.215 178.667 115.365V114.045H175.333V115.365C175.333 116.215 175.049 116.941 174.479 117.542C173.91 118.143 173.222 118.444 172.417 118.444ZM172.417 116.684C172.764 116.684 173.059 116.556 173.302 116.299C173.545 116.043 173.667 115.731 173.667 115.365V114.045H172.417C172.069 114.045 171.774 114.174 171.532 114.431C171.288 114.687 171.167 114.998 171.167 115.365C171.167 115.731 171.288 116.043 171.532 116.299C171.774 116.556 172.069 116.684 172.417 116.684ZM181.583 116.684C181.931 116.684 182.226 116.556 182.468 116.299C182.712 116.043 182.833 115.731 182.833 115.365C182.833 114.998 182.712 114.687 182.468 114.431C182.226 114.174 181.931 114.045 181.583 114.045H180.333V115.365C180.333 115.731 180.455 116.043 180.698 116.299C180.941 116.556 181.236 116.684 181.583 116.684ZM175.333 112.286H178.667V108.767H175.333V112.286ZM172.417 107.008H173.667V105.688C173.667 105.322 173.545 105.01 173.302 104.754C173.059 104.497 172.764 104.369 172.417 104.369C172.069 104.369 171.774 104.497 171.532 104.754C171.288 105.01 171.167 105.322 171.167 105.688C171.167 106.055 171.288 106.366 171.532 106.623C171.774 106.879 172.069 107.008 172.417 107.008ZM180.333 107.008H181.583C181.931 107.008 182.226 106.879 182.468 106.623C182.712 106.366 182.833 106.055 182.833 105.688C182.833 105.322 182.712 105.01 182.468 104.754C182.226 104.497 181.931 104.369 181.583 104.369C181.236 104.369 180.941 104.497 180.698 104.754C180.455 105.01 180.333 105.322 180.333 105.688V107.008Z" fill="#D4D4D8"/>
<rect x="164.5" y="97.4766" width="25" height="26.1125" rx="2.5" stroke="#3F3F46"/>
</g>
<g filter="url(#filter3_b_964_29309)">
<rect x="196" y="96.9766" width="26" height="27.1125" rx="3" fill="#27272A"/>
<path d="M205.183 116.586V104.59H207.356V110.102H207.503L212.183 104.59H214.836L210.197 109.973L214.877 116.586H212.265L208.686 111.443L207.356 113.013V116.586H205.183Z" fill="#D4D4D8"/>
<rect x="196.5" y="97.4766" width="25" height="26.1125" rx="2.5" stroke="#3F3F46"/>
</g>
</g>
<rect x="17" y="143.594" width="158" height="14" rx="7" fill="url(#paint3_linear_964_29309)"/>
<g clip-path="url(#clip3_964_29309)">
<g filter="url(#filter4_b_964_29309)">
<rect x="194.668" y="137.484" width="25.2781" height="25.2781" rx="2.63906" fill="#27272A"/>
<g clip-path="url(#clip4_964_29309)">
<path d="M209.012 149.422L208.936 150.067C208.882 150.559 208.784 151.059 208.643 151.566C208.507 152.078 208.362 152.548 208.21 152.978C208.058 153.407 207.935 153.745 207.841 153.991H206.412C206.466 153.753 206.541 153.429 206.634 153.019C206.732 152.609 206.826 152.148 206.915 151.637C207.005 151.125 207.066 150.606 207.097 150.078L207.138 149.422H209.012Z" fill="#D4D4D8"/>
</g>
<rect x="195.168" y="137.984" width="24.2781" height="24.2781" rx="2.13906" stroke="#3F3F46"/>
</g>
</g>
<rect x="17" y="183.289" width="129" height="14" rx="7" fill="url(#paint4_linear_964_29309)"/>
<g clip-path="url(#clip5_964_29309)">
<g filter="url(#filter5_b_964_29309)">
<rect x="164" y="177.094" width="23.2781" height="23.2781" rx="2.63906" fill="#27272A"/>
<path fill-rule="evenodd" clip-rule="evenodd" d="M170.37 187.819C170.264 187.713 170.205 187.57 170.205 187.421C170.205 187.272 170.264 187.129 170.37 187.024L175.057 182.336C175.163 182.231 175.306 182.172 175.455 182.172C175.604 182.172 175.747 182.231 175.852 182.336L180.54 187.024C180.595 187.075 180.639 187.137 180.67 187.206C180.701 187.275 180.717 187.35 180.719 187.425C180.72 187.501 180.706 187.576 180.678 187.646C180.65 187.716 180.607 187.78 180.554 187.833C180.501 187.887 180.437 187.929 180.367 187.957C180.297 187.985 180.222 187.999 180.146 187.998C180.071 187.996 179.996 187.98 179.927 187.949C179.858 187.918 179.796 187.874 179.745 187.819L176.017 184.091V194.921C176.017 195.071 175.958 195.214 175.852 195.319C175.747 195.425 175.604 195.484 175.455 195.484C175.306 195.484 175.162 195.425 175.057 195.319C174.951 195.214 174.892 195.071 174.892 194.921V184.091L171.165 187.819C171.059 187.924 170.916 187.983 170.767 187.983C170.618 187.983 170.475 187.924 170.37 187.819V187.819Z" fill="white"/>
<rect x="164.33" y="177.424" width="22.6184" height="22.6184" rx="2.30918" stroke="#3F3F46" stroke-width="0.659766"/>
</g>
<g filter="url(#filter6_b_964_29309)">
<rect x="164" y="177.094" width="23.2781" height="23.2781" rx="2.63906" fill="#27272A"/>
<path fill-rule="evenodd" clip-rule="evenodd" d="M170.37 187.819C170.264 187.713 170.205 187.57 170.205 187.421C170.205 187.272 170.264 187.129 170.37 187.024L175.057 182.336C175.163 182.231 175.306 182.172 175.455 182.172C175.604 182.172 175.747 182.231 175.852 182.336L180.54 187.024C180.595 187.075 180.639 187.137 180.67 187.206C180.701 187.275 180.717 187.35 180.719 187.425C180.72 187.501 180.706 187.576 180.678 187.646C180.65 187.716 180.607 187.78 180.554 187.833C180.501 187.887 180.437 187.929 180.367 187.957C180.297 187.985 180.222 187.999 180.146 187.998C180.071 187.996 179.996 187.98 179.927 187.949C179.858 187.918 179.796 187.874 179.745 187.819L176.017 184.091V194.921C176.017 195.071 175.958 195.214 175.852 195.319C175.747 195.425 175.604 195.484 175.455 195.484C175.306 195.484 175.162 195.425 175.057 195.319C174.951 195.214 174.892 195.071 174.892 194.921V184.091L171.165 187.819C171.059 187.924 170.916 187.983 170.767 187.983C170.618 187.983 170.475 187.924 170.37 187.819V187.819Z" fill="white"/>
<rect x="164.5" y="177.594" width="22.2781" height="22.2781" rx="2.13906" stroke="#3F3F46"/>
</g>
<g filter="url(#filter7_b_964_29309)">
<rect x="195.668" y="177.094" width="23.2781" height="23.2781" rx="2.63906" fill="#27272A"/>
<path fill-rule="evenodd" clip-rule="evenodd" d="M202.038 189.65C201.932 189.755 201.873 189.898 201.873 190.047C201.873 190.196 201.932 190.339 202.038 190.445L206.725 195.132C206.831 195.238 206.974 195.297 207.123 195.297C207.272 195.297 207.415 195.238 207.52 195.132L212.208 190.445C212.263 190.393 212.307 190.331 212.338 190.262C212.369 190.193 212.385 190.119 212.387 190.043C212.388 189.968 212.374 189.893 212.346 189.823C212.317 189.753 212.275 189.689 212.222 189.636C212.169 189.582 212.105 189.54 212.035 189.512C211.965 189.483 211.89 189.47 211.814 189.471C211.739 189.472 211.664 189.489 211.595 189.52C211.526 189.55 211.464 189.595 211.413 189.65L207.685 193.377V182.547C207.685 182.398 207.626 182.255 207.52 182.15C207.415 182.044 207.272 181.985 207.123 181.985C206.974 181.985 206.83 182.044 206.725 182.15C206.619 182.255 206.56 182.398 206.56 182.547V193.377L202.833 189.65C202.727 189.545 202.584 189.485 202.435 189.485C202.286 189.485 202.143 189.545 202.038 189.65V189.65Z" fill="white"/>
<rect x="196.168" y="177.594" width="22.2781" height="22.2781" rx="2.13906" stroke="#3F3F46"/>
</g>
</g>
<path fill-rule="evenodd" clip-rule="evenodd" d="M223.765 26.7692C223.882 26.6522 224.041 26.5865 224.206 26.5865C224.372 26.5865 224.531 26.6522 224.648 26.7692L228.998 31.1192L233.348 26.7692C233.405 26.7078 233.474 26.6586 233.551 26.6244C233.628 26.5903 233.71 26.5719 233.794 26.5704C233.878 26.5689 233.962 26.5844 234.039 26.6158C234.117 26.6472 234.188 26.694 234.247 26.7534C234.307 26.8127 234.353 26.8834 234.385 26.9612C234.416 27.0391 234.432 27.1224 234.43 27.2063C234.429 27.2903 234.41 27.373 234.376 27.4497C234.342 27.5264 234.293 27.5954 234.231 27.6526L229.881 32.0026L234.231 36.3526C234.293 36.4098 234.342 36.4788 234.376 36.5555C234.41 36.6321 234.429 36.7149 234.43 36.7988C234.432 36.8827 234.416 36.9661 234.385 37.0439C234.353 37.1217 234.307 37.1924 234.247 37.2518C234.188 37.3111 234.117 37.3579 234.039 37.3893C233.962 37.4208 233.878 37.4362 233.794 37.4347C233.71 37.4332 233.628 37.4149 233.551 37.3807C233.474 37.3466 233.405 37.2973 233.348 37.2359L228.998 32.8859L224.648 37.2359C224.53 37.3463 224.373 37.4064 224.211 37.4035C224.049 37.4007 223.895 37.3351 223.78 37.2206C223.666 37.1061 223.6 36.9516 223.597 36.7897C223.594 36.6278 223.654 36.471 223.765 36.3526L228.115 32.0026L223.765 27.6526C223.648 27.5354 223.582 27.3765 223.582 27.2109C223.582 27.0453 223.648 26.8864 223.765 26.7692Z" fill="#D4D4D8"/>
<path d="M0 14.8672C0 7.1352 6.26801 0.867188 14 0.867188H242V197.867H0V14.8672Z" fill="url(#paint5_linear_964_29309)"/>
<path d="M14 1.36719H241.5V202.867C241.5 210.323 235.456 216.367 228 216.367H14C6.54416 216.367 0.5 210.323 0.5 202.867V14.8672C0.5 7.41134 6.54416 1.36719 14 1.36719Z" stroke="url(#paint6_diamond_964_29309)"/>
</g>
<defs>
<filter id="filter0_b_964_29309" x="161.361" y="54.2281" width="31.2781" height="32.3875" filterUnits="userSpaceOnUse" color-interpolation-filters="sRGB">
<feFlood flood-opacity="0" result="BackgroundImageFix"/>
<feGaussianBlur in="BackgroundImageFix" stdDeviation="1.31953"/>
<feComposite in2="SourceAlpha" operator="in" result="effect1_backgroundBlur_964_29309"/>
<feBlend mode="normal" in="SourceGraphic" in2="effect1_backgroundBlur_964_29309" result="shape"/>
</filter>
<filter id="filter1_b_964_29309" x="193.361" y="54.2281" width="31.2781" height="32.3875" filterUnits="userSpaceOnUse" color-interpolation-filters="sRGB">
<feFlood flood-opacity="0" result="BackgroundImageFix"/>
<feGaussianBlur in="BackgroundImageFix" stdDeviation="1.31953"/>
<feComposite in2="SourceAlpha" operator="in" result="effect1_backgroundBlur_964_29309"/>
<feBlend mode="normal" in="SourceGraphic" in2="effect1_backgroundBlur_964_29309" result="shape"/>
</filter>
<filter id="filter2_b_964_29309" x="161.361" y="94.3375" width="31.2781" height="32.3875" filterUnits="userSpaceOnUse" color-interpolation-filters="sRGB">
<feFlood flood-opacity="0" result="BackgroundImageFix"/>
<feGaussianBlur in="BackgroundImageFix" stdDeviation="1.31953"/>
<feComposite in2="SourceAlpha" operator="in" result="effect1_backgroundBlur_964_29309"/>
<feBlend mode="normal" in="SourceGraphic" in2="effect1_backgroundBlur_964_29309" result="shape"/>
</filter>
<filter id="filter3_b_964_29309" x="193.361" y="94.3375" width="31.2781" height="32.3875" filterUnits="userSpaceOnUse" color-interpolation-filters="sRGB">
<feFlood flood-opacity="0" result="BackgroundImageFix"/>
<feGaussianBlur in="BackgroundImageFix" stdDeviation="1.31953"/>
<feComposite in2="SourceAlpha" operator="in" result="effect1_backgroundBlur_964_29309"/>
<feBlend mode="normal" in="SourceGraphic" in2="effect1_backgroundBlur_964_29309" result="shape"/>
</filter>
<filter id="filter4_b_964_29309" x="192.029" y="134.845" width="30.5555" height="30.5594" filterUnits="userSpaceOnUse" color-interpolation-filters="sRGB">
<feFlood flood-opacity="0" result="BackgroundImageFix"/>
<feGaussianBlur in="BackgroundImageFix" stdDeviation="1.31953"/>
<feComposite in2="SourceAlpha" operator="in" result="effect1_backgroundBlur_964_29309"/>
<feBlend mode="normal" in="SourceGraphic" in2="effect1_backgroundBlur_964_29309" result="shape"/>
</filter>
<filter id="filter5_b_964_29309" x="161.361" y="174.455" width="28.5555" height="28.5594" filterUnits="userSpaceOnUse" color-interpolation-filters="sRGB">
<feFlood flood-opacity="0" result="BackgroundImageFix"/>
<feGaussianBlur in="BackgroundImageFix" stdDeviation="1.31953"/>
<feComposite in2="SourceAlpha" operator="in" result="effect1_backgroundBlur_964_29309"/>
<feBlend mode="normal" in="SourceGraphic" in2="effect1_backgroundBlur_964_29309" result="shape"/>
</filter>
<filter id="filter6_b_964_29309" x="161.361" y="174.455" width="28.5555" height="28.5594" filterUnits="userSpaceOnUse" color-interpolation-filters="sRGB">
<feFlood flood-opacity="0" result="BackgroundImageFix"/>
<feGaussianBlur in="BackgroundImageFix" stdDeviation="1.31953"/>
<feComposite in2="SourceAlpha" operator="in" result="effect1_backgroundBlur_964_29309"/>
<feBlend mode="normal" in="SourceGraphic" in2="effect1_backgroundBlur_964_29309" result="shape"/>
</filter>
<filter id="filter7_b_964_29309" x="193.029" y="174.455" width="28.5555" height="28.5594" filterUnits="userSpaceOnUse" color-interpolation-filters="sRGB">
<feFlood flood-opacity="0" result="BackgroundImageFix"/>
<feGaussianBlur in="BackgroundImageFix" stdDeviation="1.31953"/>
<feComposite in2="SourceAlpha" operator="in" result="effect1_backgroundBlur_964_29309"/>
<feBlend mode="normal" in="SourceGraphic" in2="effect1_backgroundBlur_964_29309" result="shape"/>
</filter>
<linearGradient id="paint0_linear_964_29309" x1="24.9118" y1="19.926" x2="216.059" y2="248.125" gradientUnits="userSpaceOnUse">
<stop stop-color="white" stop-opacity="0.08"/>
<stop offset="0.989583" stop-color="white" stop-opacity="0"/>
</linearGradient>
<linearGradient id="paint1_linear_964_29309" x1="21.7243" y1="70.4193" x2="155.823" y2="70.4193" gradientUnits="userSpaceOnUse">
<stop stop-color="#52525B"/>
<stop offset="1" stop-color="#52525B" stop-opacity="0"/>
</linearGradient>
<linearGradient id="paint2_linear_964_29309" x1="21.7243" y1="110.529" x2="155.823" y2="110.529" gradientUnits="userSpaceOnUse">
<stop stop-color="#52525B"/>
<stop offset="1" stop-color="#52525B" stop-opacity="0"/>
</linearGradient>
<linearGradient id="paint3_linear_964_29309" x1="22.7863" y1="150.591" x2="187.031" y2="150.591" gradientUnits="userSpaceOnUse">
<stop stop-color="#52525B"/>
<stop offset="1" stop-color="#52525B" stop-opacity="0"/>
</linearGradient>
<linearGradient id="paint4_linear_964_29309" x1="21.7243" y1="190.286" x2="155.823" y2="190.286" gradientUnits="userSpaceOnUse">
<stop stop-color="#52525B"/>
<stop offset="1" stop-color="#52525B" stop-opacity="0"/>
</linearGradient>
<linearGradient id="paint5_linear_964_29309" x1="218.863" y1="182.713" x2="-30.1248" y2="83.9275" gradientUnits="userSpaceOnUse">
<stop stop-color="#18181B"/>
<stop offset="1" stop-color="#18181B" stop-opacity="0.34"/>
</linearGradient>
<radialGradient id="paint6_diamond_964_29309" cx="0" cy="0" r="1" gradientUnits="userSpaceOnUse" gradientTransform="translate(2.54797e-07 11.6165) rotate(67.0854) scale(222.796 584.234)">
<stop stop-color="#3F3F46"/>
<stop offset="1" stop-color="#3F3F46" stop-opacity="0"/>
</radialGradient>
<clipPath id="clip0_964_29309">
<rect width="243" height="197" fill="white" transform="translate(0 0.867188)"/>
</clipPath>
<clipPath id="clip1_964_29309">
<rect width="58" height="27.1125" fill="white" transform="translate(164 56.8672)"/>
</clipPath>
<clipPath id="clip2_964_29309">
<rect width="58" height="27.1125" fill="white" transform="translate(164 96.9766)"/>
</clipPath>
<clipPath id="clip3_964_29309">
<rect width="28" height="27" fill="white" transform="translate(194 137.094)"/>
</clipPath>
<clipPath id="clip4_964_29309">
<rect width="20" height="20" fill="white" transform="translate(197.309 140.125)"/>
</clipPath>
<clipPath id="clip5_964_29309">
<rect width="58.0594" height="26.3906" fill="white" transform="translate(164 177.094)"/>
</clipPath>
</defs>
</svg>
